#define Bass_xbm_width 72
#define Bass_xbm_height 286
static char Bass_xbm_bits[] = {
   0x00, 0x00, 0x00, 0x00, 0x00, 0x00, 0x00, 0x00, 0x00, 0x00, 0x00, 0x00,
   0x00, 0x00, 0x00, 0x00, 0x00, 0x00, 0x00, 0x00, 0x00, 0x00, 0x00, 0x00,
   0x00, 0x00, 0x00, 0x00, 0x00, 0x00, 0x00, 0x00, 0x00, 0x00, 0x00, 0x00,
   0x00, 0x00, 0x00, 0x00, 0x0B, 0x00, 0x00, 0x00, 0x00, 0x00, 0x00, 0x00,
   0x40, 0x15, 0x00, 0x00, 0x00, 0x00, 0x00, 0x00, 0x00, 0x80, 0x2B, 0x00,
   0x00, 0x00, 0x00, 0x00, 0x00, 0x00, 0x40, 0x51, 0x00, 0x00, 0x00, 0x00,
   0x00, 0x00, 0x00, 0xE0, 0xA0, 0x00, 0x00, 0x00, 0x00, 0x00, 0x00, 0x00,
   0x50, 0x50, 0x00, 0x00, 0x00, 0x00, 0x00, 0x00, 0x80, 0xB7, 0x40, 0x00,
   0x00, 0x00, 0x00, 0x00, 0x00, 0x40, 0x59, 0x40, 0x01, 0x00, 0x00, 0x00,
   0x00, 0x00, 0xA0, 0x36, 0x80, 0x05, 0x00, 0x00, 0x00, 0x00, 0x00, 0x50,
   0x59, 0xC0, 0x16, 0x00, 0x00, 0x00, 0x00, 0x00, 0x50, 0x20, 0xA0, 0x29,
   0x00, 0x00, 0x00, 0x00, 0x00, 0xA0, 0x50, 0x80, 0x57, 0x00, 0x00, 0x00,
   0x00, 0x00, 0x30, 0x20, 0xA0, 0x20, 0x00, 0x00, 0x00, 0x00, 0x00, 0x50,
   0x50, 0xC0, 0x81, 0x00, 0x00, 0x00, 0x00, 0x00, 0x30, 0x20, 0x40, 0x80,
   0x00, 0x00, 0x00, 0x00, 0x00, 0x20, 0xD0, 0x40, 0x01, 0x01, 0x00, 0x00,
   0x00, 0x00, 0x18, 0x20, 0xD0, 0x80, 0x00, 0x00, 0x00, 0x00, 0x00, 0x50,
   0x60, 0x40, 0x00, 0x01, 0x00, 0x00, 0x00, 0x00, 0x20, 0x50, 0xA0, 0x80,
   0x00, 0x00, 0x00, 0x00, 0x00, 0x30, 0xE0, 0x40, 0x01, 0x02, 0x00, 0x00,
   0x00, 0x00, 0x08, 0x30, 0xE9, 0x80, 0x02, 0x00, 0x00, 0x00, 0x00, 0x60,
   0xD0, 0xD4, 0x00, 0x01, 0x00, 0x00, 0x00, 0x00, 0x18, 0x70, 0x69, 0x01,
   0x03, 0x00, 0x00, 0x00, 0x00, 0x20, 0xE0, 0xEA, 0x00, 0x02, 0x00, 0x00,
   0x00, 0x00, 0x18, 0xB0, 0xD4, 0x02, 0x09, 0x00, 0x00, 0x00, 0x00, 0x68,
   0x60, 0x20, 0x01, 0x02, 0x00, 0x00, 0x00, 0x00, 0x95, 0x54, 0xC0, 0x00,
   0x05, 0x00, 0x00, 0x00, 0x00, 0x7A, 0x6A, 0x00, 0x03, 0x02, 0x00, 0x00,
   0x00, 0x80, 0xB0, 0x50, 0x80, 0x92, 0x06, 0x00, 0x00, 0x00, 0x40, 0x55,
   0x34, 0x80, 0x2B, 0x0B, 0x00, 0x00, 0x00, 0x00, 0xB0, 0x68, 0x40, 0x45,
   0x02, 0x00, 0x00, 0x00, 0x40, 0x60, 0x10, 0x80, 0x02, 0x0C, 0x00, 0x00,
   0x00, 0x80, 0x50, 0x60, 0x80, 0x01, 0x05, 0x00, 0x00, 0x00, 0x00, 0x70,
   0x40, 0x80, 0x02, 0x08, 0x00, 0x00, 0x00, 0x20, 0x90, 0x50, 0xA0, 0x00,
   0x06, 0x00, 0x00, 0x00, 0x00, 0x60, 0xA0, 0x80, 0x02, 0x08, 0x00, 0x00,
   0x00, 0x40, 0x30, 0x50, 0x80, 0x00, 0x06, 0x00, 0x00, 0x00, 0x00, 0x70,
   0xE0, 0xEE, 0x02, 0x0C, 0x00, 0x00, 0x00, 0x20, 0x50, 0xD0, 0x55, 0x01,
   0x0C, 0x00, 0x00, 0x00, 0x00, 0x30, 0xE0, 0xAA, 0x2A, 0x0A, 0x00, 0x00,
   0x00, 0x90, 0x38, 0xD0, 0xD5, 0x05, 0x14, 0x00, 0x00, 0x00, 0x20, 0xB0,
   0x64, 0x00, 0xFF, 0x0F, 0x00, 0x00, 0x00, 0x40, 0x38, 0x51, 0xC0, 0xFF,
   0x0E, 0x00, 0x00, 0x00, 0x60, 0xF7, 0x7A, 0x00, 0x05, 0x17, 0x00, 0x00,
   0x00, 0xD0, 0xFE, 0xB7, 0x80, 0x0B, 0x0E, 0x00, 0x00, 0x00, 0xA0, 0x70,
   0x40, 0x80, 0x02, 0x14, 0x00, 0x00, 0x00, 0x50, 0xA8, 0x50, 0x00, 0x01,
   0x0C, 0x00, 0x00, 0x00, 0x20, 0x50, 0x60, 0x80, 0x02, 0x10, 0x00, 0x00,
   0x00, 0x08, 0x30, 0x60, 0x00, 0x05, 0x04, 0x00, 0x00, 0x00, 0x30, 0x30,
   0x80, 0x80, 0x02, 0x10, 0x00, 0x00, 0x00, 0x20, 0x30, 0x60, 0x80, 0x01,
   0x04, 0x00, 0x00, 0x00, 0x30, 0x70, 0xC0, 0x80, 0x06, 0x10, 0x00, 0x00,
   0x00, 0x28, 0x32, 0x50, 0x80, 0x01, 0x08, 0x00, 0x00, 0x00, 0x50, 0x39,
   0x60, 0x49, 0x0B, 0x10, 0x00, 0x00, 0x00, 0xA8, 0x3B, 0xE0, 0xB4, 0x07,
   0x10, 0x00, 0x00, 0x00, 0x70, 0xB5, 0x60, 0xD3, 0x17, 0x10, 0x00, 0x00,
   0x00, 0xE8, 0x3A, 0xF8, 0xFD, 0x4F, 0x08, 0x00, 0x00, 0x00, 0xB0, 0xD4,
   0xE4, 0x56, 0x37, 0x10, 0x00, 0x00, 0x00, 0x14, 0x78, 0x7B, 0x89, 0xDA,
   0x19, 0x00, 0x00, 0x00, 0x28, 0x70, 0xFD, 0x21, 0xAD, 0x14, 0x00, 0x00,
   0x00, 0x18, 0xAC, 0x7E, 0x05, 0xA0, 0x5B, 0x00, 0x00, 0x00, 0x28, 0x78,
   0xFF, 0x02, 0x91, 0x1E, 0x00, 0x00, 0x00, 0x14, 0x1A, 0xDE, 0x5F, 0x00,
   0x14, 0x00, 0x00, 0x00, 0x28, 0x28, 0xFC, 0x2D, 0x08, 0x58, 0x00, 0x00,
   0x00, 0x18, 0xFF, 0x07, 0xFA, 0x16, 0x10, 0x00, 0x00, 0x00, 0x28, 0xB4,
   0x1B, 0x7C, 0x09, 0x40, 0x00, 0x00, 0x00, 0xDC, 0x0F, 0x00, 0xFA, 0x07,
   0x28, 0x00, 0x00, 0x00, 0x68, 0x2F, 0x05, 0xFC, 0x0B, 0x50, 0x00, 0x00,
   0x00, 0xBA, 0x0D, 0x00, 0x5E, 0x07, 0x20, 0x00, 0x00, 0x00, 0xFC, 0x0E,
   0x00, 0xBA, 0x0B, 0x40, 0x00, 0x00, 0x00, 0x2C, 0x39, 0x00, 0x24, 0x15,
   0x20, 0x00, 0x00, 0x00, 0x5A, 0x28, 0x00, 0x18, 0x0E, 0x60, 0x00, 0x00,
   0x00, 0x14, 0xD0, 0x00, 0x00, 0x34, 0x20, 0x00, 0x00, 0x00, 0x0C, 0x60,
   0x01, 0x00, 0xB8, 0x40, 0x00, 0x00, 0x00, 0x0A, 0xD0, 0x02, 0x00, 0x54,
   0x50, 0x00, 0x00, 0x00, 0x04, 0x80, 0x17, 0x00, 0xE0, 0x21, 0x00, 0x00,
   0x00, 0x05, 0x50, 0xAB, 0x02, 0x50, 0x61, 0x00, 0x00, 0x00, 0x0A, 0x8A,
   0x5F, 0x03, 0xA0, 0xA5, 0x00, 0x00, 0x00, 0x46, 0x54, 0xBD, 0x04, 0xC0,
   0x43, 0x00, 0x00, 0x00, 0xA5, 0xAF, 0xE4, 0x03, 0x00, 0xAD, 0x00, 0x00,
   0x00, 0x4A, 0x55, 0xEA, 0x05, 0x00, 0x4B, 0x00, 0x00, 0x00, 0xB5, 0x00,
   0x00, 0x0B, 0x00, 0xB4, 0x00, 0x00, 0x00, 0x46, 0x02, 0xC0, 0x16, 0x00,
   0xAD, 0x00, 0x00, 0x00, 0x02, 0x00, 0x00, 0x2F, 0x00, 0xD8, 0x00, 0x00,
   0x80, 0x06, 0x00, 0x80, 0x1F, 0x00, 0xB4, 0x00, 0x00, 0x00, 0x03, 0x00,
   0xC0, 0x6B, 0x01, 0xF8, 0x00, 0x00, 0x00, 0x06, 0x00, 0xA0, 0x77, 0x02,
   0xF4, 0x00, 0x00, 0x00, 0x03, 0x00, 0xC2, 0x83, 0x03, 0xFA, 0x00, 0x00,
   0x00, 0x06, 0x00, 0xA0, 0xD1, 0x05, 0xF4, 0x00, 0x00, 0x00, 0x02, 0x80,
   0xC5, 0x01, 0x0B, 0xF8, 0x00, 0x00, 0x00, 0x05, 0x40, 0xA1, 0x82, 0x06,
   0xF4, 0x00, 0x00, 0x00, 0x04, 0x90, 0xC0, 0x01, 0x15, 0xF0, 0x00, 0x00,
   0x80, 0x02, 0x20, 0x61, 0x01, 0x0A, 0xE8, 0x00, 0x00, 0x00, 0x05, 0x40,
   0xC0, 0x00, 0x04, 0xF0, 0x00, 0x00, 0x00, 0x02, 0x10, 0x70, 0x00, 0x10,
   0xF0, 0x00, 0x00, 0x00, 0x04, 0x00, 0xA0, 0x00, 0x00, 0xF0, 0x00, 0x00,
   0x00, 0x0B, 0x00, 0x50, 0x00, 0x00, 0xF0, 0x00, 0x00, 0x00, 0x04, 0x00,
   0x60, 0x00, 0x00, 0xE8, 0x00, 0x00, 0x00, 0x02, 0x00, 0x30, 0x00, 0x00,
   0xF0, 0x00, 0x00, 0x00, 0x14, 0x00, 0x50, 0x00, 0x00, 0xF0, 0x00, 0x00,
   0x00, 0x0A, 0x00, 0x28, 0x00, 0x00, 0x70, 0x00, 0x00, 0x00, 0x04, 0x00,
   0xB0, 0x00, 0x00, 0xF0, 0x00, 0x00, 0x00, 0x0A, 0x00, 0x54, 0x00, 0x00,
   0x70, 0x00, 0x00, 0x00, 0x14, 0x00, 0x30, 0x00, 0x00, 0xB0, 0x00, 0x00,
   0x00, 0x0C, 0x00, 0x68, 0x00, 0x00, 0x78, 0x00, 0x00, 0x00, 0x0A, 0x00,
   0x70, 0x00, 0x00, 0x70, 0x00, 0x00, 0x00, 0x14, 0x00, 0x50, 0x00, 0x00,
   0x34, 0x00, 0x00, 0x00, 0x18, 0x00, 0xE0, 0x00, 0x00, 0x70, 0x00, 0x00,
   0x00, 0x0C, 0x00, 0x50, 0x00, 0x00, 0x1C, 0x00, 0x00, 0x00, 0x28, 0x00,
   0xE0, 0x00, 0x00, 0x70, 0x00, 0x00, 0x00, 0x1C, 0x00, 0x60, 0x01, 0x00,
   0x0A, 0x00, 0x00, 0x00, 0x28, 0x00, 0xA0, 0x00, 0x00, 0x34, 0x00, 0x00,
   0x00, 0x18, 0x00, 0xC0, 0x00, 0x00, 0x0C, 0x00, 0x00, 0x00, 0x38, 0x00,
   0x60, 0x01, 0x00, 0x18, 0x00, 0x00, 0x00, 0x34, 0x00, 0xC0, 0x00, 0x00,
   0x16, 0x00, 0x00, 0x00, 0xA8, 0x00, 0xA0, 0x01, 0x00, 0x0C, 0x00, 0x00,
   0x00, 0x30, 0x00, 0x40, 0x01, 0x00, 0x0C, 0x00, 0x00, 0x00, 0xB0, 0x00,
   0x80, 0x05, 0x00, 0x0C, 0x00, 0x00, 0x00, 0x68, 0x00, 0x80, 0x03, 0x00,
   0x0B, 0x00, 0x00, 0x00, 0xA0, 0x00, 0x80, 0x05, 0x00, 0x04, 0x00, 0x00,
   0x00, 0xD0, 0x00, 0x80, 0x2E, 0xA0, 0x0B, 0x00, 0x00, 0x00, 0xE0, 0x00,
   0x00, 0x57, 0x40, 0x07, 0x00, 0x00, 0x00, 0xC0, 0x01, 0x40, 0x5B, 0xD5,
   0x05, 0x00, 0x00, 0x00, 0x40, 0x01, 0x00, 0xFD, 0xEA, 0x03, 0x00, 0x00,
   0x00, 0xA0, 0x05, 0xD4, 0xFE, 0xFF, 0x0B, 0x00, 0x00, 0x00, 0x80, 0x86,
   0x68, 0xFF, 0xFF, 0x03, 0x00, 0x00, 0x00, 0x40, 0x5B, 0xFB, 0x7E, 0xFF,
   0x01, 0x00, 0x00, 0x00, 0x00, 0xFF, 0xBF, 0xAF, 0xF1, 0x03, 0x00, 0x00,
   0x00, 0x00, 0xBF, 0x5F, 0x5F, 0xFE, 0x02, 0x00, 0x00, 0x00, 0x00, 0xFE,
   0xAF, 0x0F, 0xE8, 0x01, 0x00, 0x00, 0x00, 0x00, 0xF7, 0x8A, 0x17, 0xF0,
   0x01, 0x00, 0x00, 0x00, 0x80, 0x4A, 0x03, 0x2F, 0xF8, 0x02, 0x00, 0x00,
   0x00, 0x00, 0x95, 0xA0, 0x0B, 0xF4, 0x01, 0x00, 0x00, 0x00, 0x00, 0x06,
   0x00, 0x57, 0xF8, 0x01, 0x00, 0x00, 0x00, 0x00, 0x03, 0x80, 0x0F, 0xF8,
   0x00, 0x00, 0x00, 0x00, 0x00, 0x05, 0x40, 0x0B, 0xF4, 0x01, 0x00, 0x00,
   0x00, 0x00, 0x05, 0x80, 0x07, 0xF8, 0x00, 0x00, 0x00, 0x00, 0x80, 0x02,
   0x00, 0x1B, 0x78, 0x01, 0x00, 0x00, 0x00, 0x00, 0x05, 0xA0, 0x07, 0xF4,
   0x02, 0x00, 0x00, 0x00, 0x00, 0x03, 0x80, 0x0F, 0x78, 0x01, 0x00, 0x00,
   0x00, 0x40, 0x02, 0x40, 0x0B, 0xFC, 0x00, 0x00, 0x00, 0x00, 0x00, 0x05,
   0x80, 0x07, 0xF8, 0x00, 0x00, 0x00, 0x00, 0x80, 0x01, 0xA0, 0x07, 0x76,
   0x01, 0x00, 0x00, 0x00, 0x40, 0x02, 0x80, 0x0F, 0xB8, 0x00, 0x00, 0x00,
   0x00, 0x80, 0x05, 0xA0, 0x0B, 0x7C, 0x00, 0x00, 0x00, 0x00, 0x80, 0x02,
   0x80, 0x07, 0xFD, 0x00, 0x00, 0x00, 0x00, 0x40, 0x05, 0x60, 0x07, 0x7C,
   0x00, 0x00, 0x00, 0x00, 0x00, 0xAB, 0x80, 0x0D, 0xBC, 0x00, 0x00, 0x00,
   0x00, 0x80, 0x5F, 0xC2, 0x97, 0x7B, 0x00, 0x00, 0x00, 0x00, 0x00, 0xB6,
   0xA9, 0xAF, 0x3E, 0x00, 0x00, 0x00, 0x00, 0x00, 0xFC, 0xF7, 0xDF, 0x07,
   0x00, 0x00, 0x00, 0x00, 0x00, 0x51, 0x5D, 0xEF, 0x12, 0x00, 0x00, 0x00,
   0x00, 0x00, 0xC0, 0xF6, 0xBD, 0x04, 0x00, 0x00, 0x00, 0x00, 0x00, 0x20,
   0xBA, 0x56, 0x01, 0x00, 0x00, 0x00, 0x00, 0x00, 0x00, 0x40, 0x00, 0x00,
   0x00, 0x00, 0x00, 0x00, 0x00, 0x00, 0x04, 0x08, 0x00, 0x00, 0x00, 0x00,
   0x00, 0x00, 0x00, 0x00, 0x00, 0x00, 0x00, 0x00, 0x00, 0x00, 0x00, 0x00,
   0x00, 0x00, 0x00, 0x00, 0x00, 0x00, 0xF0, 0xFF, 0x00, 0x00, 0x00, 0x00,
   0x00, 0x00, 0x00, 0xF0, 0xFF, 0x01, 0x00, 0x00, 0x00, 0x00, 0x00, 0x00,
   0xF0, 0xFF, 0x03, 0x00, 0x00, 0x00, 0x00, 0x00, 0x00, 0xF0, 0xFF, 0x03,
   0x00, 0x00, 0x00, 0x00, 0x00, 0x00, 0x70, 0xC0, 0x07, 0x00, 0x00, 0x00,
   0x00, 0x00, 0x00, 0xF0, 0x80, 0x07, 0x00, 0x00, 0x00, 0x00, 0x00, 0x00,
   0x70, 0x80, 0x07, 0xFE, 0x00, 0x3F, 0x80, 0x1F, 0x00, 0xF0, 0x80, 0x07,
   0xFF, 0x81, 0xFF, 0xC0, 0x7F, 0x00, 0x70, 0xC0, 0x87, 0xFF, 0xC3, 0xFF,
   0xE0, 0x7F, 0x00, 0xF0, 0xC0, 0x83, 0xFF, 0xC7, 0xF3, 0xE1, 0xF9, 0x00,
   0xF0, 0xFF, 0xC1, 0xC3, 0xE3, 0x61, 0xF0, 0x30, 0x00, 0xF0, 0xFF, 0x01,
   0x82, 0xC7, 0x01, 0xE0, 0x00, 0x00, 0xF0, 0xFF, 0x01, 0x80, 0xE3, 0x03,
   0xF0, 0x01, 0x00, 0xF0, 0xFF, 0x03, 0xE0, 0xC7, 0x1F, 0xE0, 0x0F, 0x00,
   0x70, 0xC0, 0x07, 0xFC, 0xC3, 0x7F, 0xE0, 0x3F, 0x00, 0xF0, 0x80, 0x07,
   0xFF, 0x87, 0xFF, 0xC0, 0x7F, 0x00, 0x70, 0x00, 0x8F, 0x9F, 0x03, 0xFF,
   0x81, 0xFF, 0x00, 0xF0, 0x00, 0xC7, 0x83, 0x07, 0xF8, 0x03, 0xFC, 0x00,
   0x70, 0x00, 0xCF, 0x83, 0x03, 0xE0, 0x01, 0xF0, 0x01, 0xF0, 0x00, 0xC7,
   0x81, 0x07, 0xC0, 0x03, 0xE0, 0x00, 0x70, 0x80, 0xC7, 0xC3, 0xC3, 0xC1,
   0xE1, 0xE0, 0x01, 0xF0, 0xC0, 0xC7, 0xE3, 0xE7, 0xE3, 0xF3, 0xF1, 0x00,
   0xF0, 0xFF, 0xC7, 0xFF, 0xE3, 0xFF, 0xF1, 0xFF, 0x00, 0xF0, 0xFF, 0x83,
   0xFF, 0xC7, 0xFF, 0xE0, 0xFF, 0x00, 0xF0, 0xFF, 0x81, 0xBF, 0x87, 0x7F,
   0xC0, 0x3F, 0x00, 0xF0, 0xFF, 0x00, 0x1E, 0x07, 0x3E, 0x00, 0x1F, 0x00,
   0x00, 0x00, 0x00, 0x00, 0x00, 0x00, 0x00, 0x00, 0x00, 0x00, 0x00, 0x00,
   0x00, 0x00, 0x00, 0x00, 0x00, 0x00, 0x00, 0x00, 0x00, 0x00, 0x00, 0x00,
   0x00, 0x00, 0x00, 0x00, 0x00, 0x00, 0x00, 0x00, 0x00, 0x00, 0x00, 0x00,
   0x00, 0x00, 0x00, 0x00, 0x00, 0x00, 0x00, 0x00, 0x00, 0x00, 0x00, 0x00,
   0x00, 0x00, 0x00, 0x00, 0x00, 0x00, 0x00, 0x00, 0x00, 0x00, 0x00, 0x00,
   0x00, 0x00, 0x00, 0x00, 0x00, 0x00, 0x00, 0x00, 0x00, 0x00, 0x00, 0x00,
   0x00, 0x00, 0x00, 0x00, 0x00, 0x00, 0x00, 0x00, 0x00, 0x00, 0x00, 0x00,
   0x00, 0x00, 0x00, 0x00, 0x00, 0x00, 0x00, 0x00, 0x00, 0x00, 0x00, 0x00,
   0x00, 0x00, 0x00, 0x00, 0x00, 0x00, 0x00, 0x00, 0x00, 0x00, 0x00, 0x00,
   0x00, 0x00, 0x00, 0x00, 0x00, 0x00, 0x00, 0x00, 0x00, 0x00, 0x00, 0x00,
   0x00, 0x00, 0x00, 0x00, 0x00, 0x00, 0x00, 0x00, 0x00, 0x00, 0x00, 0x00,
   0x00, 0x00, 0x00, 0x00, 0x0E, 0x70, 0x00, 0x00, 0x00, 0x1F, 0x00, 0x00,
   0x00, 0x07, 0x70, 0x00, 0x00, 0xC0, 0x3F, 0x00, 0x00, 0x00, 0x07, 0x78,
   0x00, 0x00, 0xC0, 0x7F, 0x00, 0x00, 0x80, 0x07, 0x78, 0x00, 0x00, 0xE0,
   0xFF, 0x00, 0x00, 0x00, 0x07, 0x7C, 0x00, 0x00, 0xE0, 0xF1, 0x00, 0x00,
   0x80, 0x03, 0x7E, 0x00, 0x00, 0xF0, 0xF1, 0x00, 0x00, 0x80, 0x03, 0x7F,
   0x00, 0x00, 0xF0, 0xE0, 0x00, 0x00, 0xC0, 0x83, 0x7F, 0x00, 0x00, 0xD0,
   0xF0, 0x00, 0x00, 0xC0, 0x83, 0x7F, 0x00, 0x00, 0x00, 0xE0, 0x00, 0x00,
   0xC0, 0x83, 0x71, 0x00, 0x00, 0x00, 0xF0, 0x00, 0x00, 0xE0, 0x81, 0x78,
   0x00, 0x00, 0x00, 0xF0, 0x00, 0x00, 0xC0, 0x03, 0x70, 0x00, 0x00, 0x00,
   0x78, 0x00, 0x00, 0xE0, 0x01, 0x78, 0x00, 0x00, 0x00, 0x7C, 0x00, 0x00,
   0xE0, 0x01, 0x70, 0x00, 0x00, 0x00, 0x7C, 0x00, 0x00, 0xE0, 0x01, 0x78,
   0x00, 0x00, 0x00, 0x3E, 0x00, 0x00, 0xE0, 0x01, 0x70, 0x00, 0x00, 0x00,
   0x1F, 0x00, 0x00, 0xE0, 0x01, 0x78, 0x00, 0x00, 0x80, 0x0F, 0x00, 0x00,
   0xE0, 0x01, 0x70, 0x00, 0x00, 0x80, 0x07, 0x00, 0x00, 0xE0, 0x01, 0x78,
   0x00, 0x00, 0xC0, 0x03, 0x00, 0x00, 0xE0, 0x01, 0x70, 0x00, 0x00, 0xC0,
   0x03, 0x00, 0x00, 0xE0, 0x01, 0x78, 0x00, 0x00, 0xE0, 0x01, 0x00, 0x00,
   0xC0, 0x03, 0x70, 0xE0, 0x01, 0xF0, 0xFF, 0x78, 0x00, 0xC0, 0x01, 0x78,
   0xE0, 0x01, 0xF0, 0xFF, 0x78, 0x00, 0xC0, 0x03, 0x70, 0xE0, 0x01, 0xF0,
   0xFF, 0x78, 0x00, 0xC0, 0x03, 0x78, 0xE0, 0x01, 0xF8, 0xFF, 0x78, 0x00,
   0x80, 0x03, 0x70, 0xE0, 0x01, 0xF0, 0xFF, 0x78, 0x00, 0x80, 0x03, 0x00,
   0x80, 0x01, 0x00, 0x00, 0x60, 0x00, 0x80, 0x07, 0x00, 0x80, 0x01, 0x00,
   0x00, 0x60, 0x00, 0x80, 0x03, 0x00, 0xC0, 0x00, 0x00, 0x00, 0x30, 0x00,
   0x00, 0x07, 0x00, 0xC0, 0x00, 0x00, 0x00, 0x30, 0x00, 0x00, 0x07, 0x00,
   0xE0, 0x00, 0x00, 0x00, 0x38, 0x00, 0x00, 0x00, 0x00, 0x00, 0x00, 0x00,
   0x00, 0x00, 0x00, 0x00, 0x00, 0x00, 0x00, 0x00, 0x00, 0x00, 0x00, 0x00,
   0x00, 0x00, 0x00, 0x00, 0x00, 0x00, 0x00, 0x00, 0x00, 0x00, 0x00, 0x00,
   0x00, 0x00, 0x00, 0x00, 0x00, 0x00, 0x00, 0x00, 0x00, 0x00, 0x00, 0x00,
   0x00, 0x00, 0x00, 0x00, 0x00, 0x00, 0x00, 0x00, 0x00, 0x00, 0x00, 0x00,
   0x00, 0x00, 0x00, 0x00, 0x00, 0x00, 0x00, 0x00, 0x00, 0x00, 0x00, 0x00,
   0x00, 0x00, 0x00, 0x00, 0x00, 0x00, 0x00, 0x00, 0x00, 0x00, 0x00, 0x00,
   0x00, 0x00, 0x00, 0x00, 0x00, 0x00, 0x00, 0x00, 0x00, 0x00, 0x00, 0x00,
   0x00, 0x00, 0x1F, 0x00, 0x00, 0x00, 0x1C, 0x0E, 0x00, 0x00, 0x80, 0x3F,
   0x00, 0x00, 0x00, 0x1E, 0x1C, 0x00, 0x00, 0xC0, 0x7F, 0x00, 0x00, 0x00,
   0x1E, 0x1C, 0x00, 0x00, 0xE0, 0x7F, 0x00, 0x00, 0x00, 0x1F, 0x3C, 0x00,
   0x00, 0xE0, 0xF1, 0x00, 0x00, 0x00, 0x1F, 0x38, 0x00, 0x00, 0xE0, 0xF1,
   0x00, 0x00, 0x80, 0x1F, 0x3C, 0x00, 0x00, 0xC0, 0xF0, 0x00, 0x00, 0x80,
   0x1F, 0x38, 0x00, 0x00, 0x00, 0xF0, 0x00, 0x00, 0xC0, 0x1F, 0x78, 0x00,
   0x00, 0x00, 0xF0, 0x00, 0x00, 0xC0, 0x1F, 0x78, 0x00, 0x00, 0x00, 0x78,
   0x00, 0x00, 0xC0, 0x1F, 0x78, 0x00, 0x00, 0x00, 0x7E, 0x00, 0x00, 0xE0,
   0x1C, 0x70, 0x00, 0x00, 0x00, 0x3E, 0x00, 0x00, 0xF0, 0x1E, 0xF8, 0x00,
   0x00, 0x00, 0x3E, 0x00, 0x00, 0x70, 0x1C, 0xF0, 0x00, 0x00, 0x00, 0x7E,
   0x00, 0x00, 0x70, 0x1E, 0xF0, 0x00, 0x00, 0x00, 0xF0, 0x00, 0x00, 0x38,
   0x1C, 0xF0, 0x00, 0x00, 0x00, 0xF0, 0x01, 0x00, 0x78, 0x1E, 0xF0, 0x00,
   0x00, 0x00, 0xE0, 0x01, 0x00, 0x3C, 0x1C, 0xF0, 0x00, 0x00, 0x00, 0xE0,
   0x01, 0x00, 0xFC, 0x7F, 0xF0, 0x00, 0x00, 0xD0, 0xE0, 0x01, 0x00, 0xFC,
   0xFF, 0xF0, 0x00, 0x00, 0xF0, 0xE0, 0x01, 0x00, 0xFC, 0x7F, 0xF0, 0x00,
   0x00, 0xF0, 0xF1, 0x01, 0x00, 0xFC, 0xFF, 0xF0, 0x00, 0x00, 0xE0, 0xF1,
   0xF0, 0x00, 0x00, 0x1C, 0x78, 0x00, 0x00, 0xE0, 0xFF, 0x70, 0x00, 0x00,
   0x1E, 0x70, 0x00, 0x00, 0xC0, 0x7F, 0xF0, 0x00, 0x00, 0x1C, 0x78, 0x00,
   0x00, 0xC0, 0x3F, 0x70, 0x00, 0x00, 0x1E, 0x78, 0x00, 0x00, 0x00, 0x1F,
   0xF0, 0x00, 0x00, 0x1C, 0x38, 0x00, 0x00, 0x00, 0x00, 0x60, 0x00, 0x00,
   0x00, 0x38, 0x00, 0x00, 0x00, 0x00, 0xE0, 0x00, 0x00, 0x00, 0x3C, 0x00,
   0x00, 0x00, 0x00, 0x60, 0x00, 0x00, 0x00, 0x38, 0x00, 0x00, 0x00, 0x00,
   0x70, 0x00, 0x00, 0x00, 0x1C, 0x00, 0x00, 0x00, 0x00, 0x30, 0x00, 0x00,
   0x00, 0x1C, 0x00, 0x00, 0x00, 0x00, 0x10, 0x00, 0x00, 0x00, 0x1C, 0x00,
   0x00, 0x00, 0x00, 0x00, 0x00, 0x00, 0x00, 0x0E, 0x00, 0x00, 0x00, 0x00,
   0x00, 0x00, 0x00, 0x00, 0x00, 0x00, 0x00, 0x00, 0x00, 0x00, 0x00, 0x00,
   0x00, 0x00, 0x00, 0x00, 0x00, 0x00, 0x00, 0x00, 0x00, 0x00, 0x00, 0x00,
   0x00, 0x00, 0x00, 0x00, 0x00, 0x00, 0x00, 0x00, 0x00, 0x00, 0x00, 0x00,
   0x00, 0x00, 0x00, 0x00, 0x00, 0x00, 0x00, 0x00, 0x00, 0x00, 0x00, 0x00,
   0x00, 0x00, 0x00, 0x00, 0x00, 0x00, 0x00, 0x00, 0x00, 0x00, 0x00, 0x00,
   0x00, 0x00, 0x00, 0x00, 0x00, 0x00, 0x00, 0x00, 0x00, 0x00, 0x00, 0x00,
   0x00, 0x00, 0x00, 0x00, 0x00, 0x00 };
