#define DownBeat_xbm_width 61
#define DownBeat_xbm_height 115
static char DownBeat_xbm_bits[] = {
   0x00, 0x00, 0x00, 0x00, 0x00, 0x00, 0x00, 0x00, 0x00, 0x00, 0x00, 0x00,
   0x3D, 0x00, 0x00, 0x00, 0x00, 0x00, 0x00, 0x00, 0x2A, 0x00, 0x00, 0x00,
   0x00, 0x00, 0x00, 0x80, 0x51, 0x00, 0x00, 0x00, 0x00, 0x00, 0x00, 0x80,
   0x60, 0x00, 0x00, 0xC0, 0x00, 0x00, 0x00, 0x40, 0x80, 0x00, 0x00, 0xC0,
   0x00, 0x00, 0x00, 0x80, 0xC0, 0x00, 0x00, 0xC0, 0x00, 0x00, 0x00, 0x40,
   0x01, 0x01, 0x00, 0xC0, 0x00, 0x00, 0x00, 0x00, 0x80, 0x02, 0x00, 0x20,
   0x00, 0x00, 0x00, 0x80, 0x01, 0x01, 0x00, 0x60, 0x00, 0x00, 0x00, 0x00,
   0x01, 0x05, 0x00, 0x00, 0x00, 0x00, 0x00, 0x00, 0x01, 0x02, 0x00, 0xE0,
   0x00, 0x00, 0x00, 0x80, 0x01, 0x05, 0x00, 0xA0, 0x00, 0x00, 0x00, 0x00,
   0x02, 0x04, 0x00, 0xE0, 0x00, 0x00, 0x00, 0x80, 0xD5, 0x07, 0x00, 0x80,
   0x00, 0x00, 0x00, 0x00, 0x6A, 0x06, 0x00, 0x80, 0x00, 0x00, 0x00, 0x00,
   0x06, 0x0C, 0x00, 0x60, 0x00, 0x00, 0x00, 0x00, 0x02, 0x0A, 0x00, 0xE0,
   0x00, 0x00, 0x00, 0x00, 0x06, 0x08, 0x00, 0x40, 0x00, 0x00, 0x00, 0x00,
   0x04, 0x14, 0x00, 0x80, 0x00, 0x00, 0x00, 0x00, 0x06, 0x28, 0x00, 0x60,
   0x00, 0x00, 0x00, 0x00, 0x0A, 0x10, 0x00, 0xE0, 0x00, 0x00, 0x00, 0x00,
   0x04, 0x18, 0x00, 0xC0, 0x00, 0x00, 0x00, 0x00, 0x0C, 0x30, 0x00, 0x40,
   0x00, 0x00, 0x00, 0x00, 0xD4, 0x5F, 0x00, 0x00, 0x00, 0x00, 0x00, 0x00,
   0x7C, 0x2B, 0x00, 0x20, 0x00, 0x00, 0x00, 0x00, 0xEC, 0x54, 0x00, 0x60,
   0x00, 0x00, 0x00, 0x00, 0x18, 0x30, 0x00, 0xA0, 0x00, 0x00, 0x00, 0x00,
   0x14, 0x20, 0x00, 0x60, 0x00, 0x00, 0x00, 0xD4, 0x08, 0x50, 0x00, 0xE0,
   0x00, 0x00, 0x00, 0xAF, 0x19, 0xA0, 0x00, 0x00, 0x00, 0x00, 0x80, 0x83,
   0x12, 0x50, 0x00, 0xE0, 0x00, 0x00, 0x80, 0x80, 0x29, 0x20, 0x00, 0xA0,
   0x00, 0x00, 0xC0, 0x01, 0x16, 0xA0, 0x00, 0x60, 0x00, 0x00, 0x54, 0x01,
   0x2A, 0x40, 0x00, 0xE0, 0x00, 0x00, 0xEA, 0x00, 0x16, 0xC0, 0x00, 0xE0,
   0x00, 0x80, 0xD5, 0x00, 0x2C, 0xA0, 0x00, 0xE0, 0x00, 0x80, 0x42, 0x01,
   0x5C, 0x95, 0x00, 0xE0, 0x00, 0x80, 0x81, 0x00, 0xB6, 0xEB, 0x00, 0xE0,
   0x00, 0x40, 0x01, 0x01, 0x14, 0xFC, 0x00, 0xE0, 0x00, 0x80, 0xC1, 0x00,
   0x2C, 0x80, 0x01, 0xE0, 0x00, 0x40, 0x01, 0x42, 0x14, 0xC0, 0x00, 0xE0,
   0x00, 0xD0, 0x81, 0xA1, 0x0C, 0x00, 0x01, 0xE0, 0x00, 0xB0, 0x83, 0x52,
   0x2C, 0x00, 0x01, 0xE0, 0x00, 0x4C, 0x01, 0x01, 0x0C, 0x80, 0x00, 0xE0,
   0x00, 0x04, 0x06, 0x06, 0x14, 0x00, 0x03, 0xE0, 0x00, 0x08, 0x86, 0x02,
   0x04, 0x00, 0x01, 0xE0, 0x00, 0x06, 0x44, 0x0D, 0x0C, 0x00, 0x01, 0xE0,
   0x00, 0x84, 0x56, 0xA2, 0x19, 0x00, 0x01, 0xE0, 0x00, 0x4A, 0x2D, 0xDC,
   0x0F, 0x00, 0x02, 0xE0, 0x00, 0x56, 0x0C, 0xB4, 0x1A, 0x02, 0x03, 0xE0,
   0x00, 0x0C, 0x18, 0x5A, 0x1C, 0x05, 0x02, 0xE0, 0x00, 0x1E, 0x2C, 0x3C,
   0x1E, 0x06, 0x03, 0x00, 0x00, 0x1A, 0x18, 0x3F, 0x3D, 0x07, 0x05, 0x00,
   0x00, 0x3C, 0xBE, 0xFB, 0x7A, 0x03, 0x03, 0x00, 0x00, 0xAC, 0xAE, 0xD0,
   0xEE, 0x31, 0x02, 0x00, 0x00, 0x32, 0x71, 0xB1, 0xB5, 0x23, 0x03, 0x00,
   0x00, 0xC8, 0xEA, 0xD2, 0x42, 0x15, 0x06, 0x00, 0x00, 0x56, 0xDB, 0xB5,
   0xB1, 0x5A, 0x03, 0x00, 0x00, 0xE8, 0xED, 0xDB, 0x68, 0x2C, 0x03, 0x00,
   0x00, 0xCE, 0xB7, 0xBF, 0x1C, 0x1A, 0x05, 0x00, 0x00, 0x08, 0x5A, 0x5E,
   0x2F, 0x50, 0x02, 0x00, 0x00, 0x06, 0x04, 0x3F, 0x15, 0xB0, 0x01, 0x00,
   0x00, 0x18, 0x80, 0x5E, 0x02, 0xE0, 0x01, 0x00, 0x00, 0x06, 0x80, 0xB5,
   0x00, 0xF8, 0x01, 0x00, 0x00, 0x08, 0xC0, 0x76, 0x01, 0xF8, 0x01, 0x00,
   0x00, 0x0C, 0xA0, 0xD9, 0x00, 0xDE, 0x01, 0x00, 0x00, 0x10, 0xA8, 0x2A,
   0x0B, 0x2D, 0x01, 0x00, 0x00, 0x0C, 0x50, 0x15, 0x27, 0x4E, 0x01, 0x00,
   0x00, 0x10, 0x98, 0x18, 0xBC, 0x0E, 0x01, 0x00, 0x00, 0x18, 0x44, 0x0A,
   0xF8, 0x01, 0x01, 0x00, 0x00, 0x50, 0xA0, 0x28, 0xE0, 0x00, 0x03, 0x00,
   0x00, 0x30, 0x40, 0x1C, 0x58, 0x81, 0x01, 0x00, 0x00, 0x00, 0x00, 0x00,
   0x00, 0x00, 0x00, 0x00, 0x00, 0x00, 0x00, 0x00, 0x00, 0x00, 0x00, 0x00,
   0x00, 0x00, 0x00, 0x00, 0x00, 0x00, 0x00, 0x00, 0x00, 0x00, 0x00, 0x00,
   0x00, 0x00, 0x00, 0x00, 0x00, 0x00, 0x00, 0x00, 0x00, 0x00, 0x00, 0x00,
   0xA8, 0x05, 0x00, 0x00, 0x00, 0x00, 0x00, 0x00, 0xF8, 0x1F, 0x00, 0x00,
   0x00, 0x00, 0x00, 0x00, 0xF8, 0x3F, 0x00, 0x00, 0x00, 0x00, 0x00, 0x00,
   0x38, 0x78, 0x00, 0x00, 0x00, 0x00, 0x00, 0x00, 0x38, 0x70, 0xF0, 0xC3,
   0xE1, 0x70, 0xF3, 0x00, 0x38, 0x70, 0xF8, 0xCF, 0xE1, 0x70, 0xFF, 0x03,
   0x38, 0xE0, 0xBC, 0x8F, 0xE3, 0x38, 0xDF, 0x03, 0x38, 0x70, 0x1C, 0x9C,
   0xF3, 0x39, 0x87, 0x03, 0x38, 0xE0, 0x1C, 0x9C, 0xB3, 0x39, 0x87, 0x03,
   0x38, 0x70, 0x0E, 0x38, 0xB3, 0x19, 0x87, 0x03, 0x38, 0xE0, 0x1C, 0x9C,
   0x9B, 0x1B, 0x87, 0x03, 0x38, 0x70, 0x1E, 0x38, 0x1F, 0x1F, 0x87, 0x03,
   0x38, 0x70, 0x1C, 0x1C, 0x1E, 0x0F, 0x87, 0x03, 0x78, 0x3D, 0x7C, 0x0F,
   0x1E, 0x0F, 0x87, 0x03, 0xF8, 0x1F, 0xF8, 0x07, 0x0E, 0x0E, 0x87, 0x03,
   0xF8, 0x0F, 0xE0, 0x05, 0x1C, 0x07, 0x87, 0x03, 0x00, 0x00, 0x00, 0x00,
   0x00, 0x00, 0x00, 0x00, 0x00, 0x00, 0x00, 0x00, 0x00, 0x00, 0x00, 0x00,
   0x00, 0x38, 0x00, 0x00, 0x00, 0x00, 0x04, 0x00, 0x00, 0x38, 0x00, 0x00,
   0x00, 0x00, 0x07, 0x00, 0x00, 0x38, 0x00, 0x00, 0x00, 0x00, 0x07, 0x00,
   0x00, 0xB8, 0x02, 0x28, 0x80, 0x42, 0x0F, 0x00, 0x00, 0xF8, 0x0F, 0x7E,
   0xF0, 0x8F, 0x1F, 0x00, 0x00, 0xF8, 0x1F, 0xFF, 0xF0, 0xDF, 0x1F, 0x00,
   0x00, 0x78, 0x9C, 0xC7, 0x39, 0x1C, 0x07, 0x00, 0x00, 0x38, 0x9C, 0xC3,
   0x01, 0x1E, 0x07, 0x00, 0x00, 0x38, 0xB8, 0xFF, 0xC3, 0x1F, 0x07, 0x00,
   0x00, 0x38, 0x9C, 0xFF, 0xF1, 0x1D, 0x07, 0x00, 0x00, 0x38, 0xB8, 0x03,
   0x38, 0x1C, 0x07, 0x00, 0x00, 0x38, 0x9C, 0x03, 0x1C, 0x1C, 0x07, 0x00,
   0x00, 0x78, 0x1C, 0xC7, 0x39, 0x1E, 0x07, 0x00, 0x00, 0xF8, 0x1F, 0xFF,
   0xF9, 0x1F, 0x1F, 0x00, 0x00, 0xD8, 0x07, 0x7E, 0xF0, 0x1D, 0x1E, 0x00,
   0x00, 0x90, 0x02, 0x28, 0xA0, 0x10, 0x08, 0x00, 0x00, 0x00, 0x00, 0x00,
   0x00, 0x00, 0x00, 0x00, 0x00, 0x00, 0x00, 0x00, 0x00, 0x00, 0x00, 0x00,
   0x00, 0x00, 0x00, 0x00, 0x00, 0x00, 0x00, 0x00 };
