#define Hand3_xbm_width 106
#define Hand3_xbm_height 60
static char Hand3_xbm_bits[] = {
   0x00, 0x00, 0x00, 0x00, 0x00, 0x00, 0x00, 0x00, 0x00, 0x00, 0x00, 0x00,
   0x00, 0x80, 0x00, 0x00, 0x00, 0x00, 0x00, 0x00, 0x00, 0x00, 0x00, 0x00,
   0x00, 0x00, 0x00, 0x60, 0x00, 0x00, 0x00, 0x00, 0x00, 0x00, 0x00, 0x00,
   0x00, 0x00, 0x00, 0x00, 0x00, 0x60, 0x00, 0x00, 0x00, 0x00, 0x00, 0x00,
   0x00, 0x00, 0x00, 0x00, 0x00, 0x00, 0x00, 0x88, 0x00, 0x00, 0x00, 0x00,
   0x00, 0x00, 0x00, 0x00, 0x00, 0x00, 0x00, 0x00, 0x00, 0x5C, 0x00, 0x50,
   0x05, 0x00, 0x00, 0x00, 0x00, 0x00, 0x00, 0x00, 0x00, 0x00, 0x00, 0xEC,
   0x00, 0xB4, 0xFE, 0x15, 0x00, 0x00, 0x00, 0x00, 0x00, 0x00, 0x00, 0x00,
   0x00, 0x28, 0x00, 0x0A, 0x80, 0xEA, 0x2F, 0x00, 0x00, 0x00, 0x00, 0x00,
   0x00, 0x00, 0x00, 0x38, 0x00, 0x04, 0xA0, 0xD5, 0xDB, 0x04, 0x00, 0x00,
   0x00, 0x00, 0x00, 0x00, 0x00, 0xB8, 0x00, 0x08, 0x80, 0x40, 0xF5, 0xB7,
   0x00, 0x00, 0x00, 0x00, 0x00, 0x00, 0x00, 0xB8, 0x00, 0x0A, 0x40, 0x80,
   0xC9, 0x7F, 0x05, 0x00, 0x00, 0x00, 0x00, 0x00, 0x00, 0xB8, 0x00, 0x34,
   0x80, 0x80, 0x00, 0xAC, 0x5B, 0x00, 0x00, 0x00, 0x00, 0x00, 0x00, 0xB8,
   0x00, 0xE8, 0xA5, 0xC0, 0x00, 0x17, 0xF4, 0x0B, 0x00, 0x00, 0x00, 0x00,
   0x00, 0x18, 0x00, 0x50, 0xB6, 0x41, 0x81, 0x06, 0xB0, 0xB6, 0x00, 0x00,
   0x00, 0x00, 0x00, 0xB8, 0x00, 0x80, 0xEA, 0xA0, 0x00, 0x03, 0x48, 0x7D,
   0x01, 0x00, 0x00, 0x00, 0x00, 0x18, 0x00, 0x00, 0x50, 0xCD, 0x01, 0x03,
   0x00, 0xA4, 0x17, 0x00, 0x00, 0x00, 0x00, 0x00, 0x00, 0x00, 0x00, 0x7A,
   0x81, 0x02, 0x09, 0x8B, 0x3F, 0x00, 0x00, 0x00, 0x00, 0x00, 0x00, 0x00,
   0x00, 0xA0, 0x8A, 0x01, 0x94, 0xD7, 0xFE, 0x05, 0x00, 0x00, 0x00, 0x00,
   0x00, 0x00, 0x00, 0x00, 0xB5, 0x00, 0xEA, 0x2B, 0xA9, 0x1F, 0x00, 0x00,
   0x00, 0x00, 0x00, 0x00, 0x00, 0x00, 0xDC, 0x02, 0xD4, 0x0D, 0x44, 0x6D,
   0x01, 0x00, 0x00, 0x00, 0x00, 0x00, 0x00, 0xA4, 0xF0, 0x00, 0xBE, 0x02,
   0x00, 0xD8, 0x06, 0x00, 0x00, 0x00, 0x00, 0xAA, 0xAA, 0x7B, 0x8B, 0x00,
   0x3A, 0x18, 0x00, 0xA0, 0xBF, 0xEA, 0x00, 0x00, 0xA0, 0xF5, 0x57, 0x55,
   0xFD, 0x04, 0x0E, 0x00, 0x00, 0x00, 0xFE, 0xFF, 0x01, 0x00, 0x50, 0x12,
   0xAD, 0xB8, 0xF6, 0x29, 0x17, 0x00, 0x00, 0x00, 0xF9, 0xFF, 0x01, 0x00,
   0x20, 0x00, 0x02, 0x10, 0xA0, 0xD0, 0x02, 0x00, 0x00, 0x00, 0xF4, 0xDF,
   0x02, 0x00, 0x10, 0x00, 0x02, 0x18, 0xC0, 0xE0, 0x01, 0x00, 0x00, 0x00,
   0xF8, 0xAF, 0x03, 0x00, 0x20, 0x00, 0x04, 0x10, 0xA0, 0x3C, 0x00, 0x40,
   0x00, 0x00, 0xB8, 0x40, 0x03, 0x00, 0x10, 0x00, 0x02, 0x38, 0x40, 0x55,
   0x00, 0xA0, 0x00, 0x00, 0x74, 0x00, 0x06, 0x00, 0xA0, 0x04, 0x06, 0x18,
   0xC0, 0x0E, 0x00, 0x40, 0x00, 0x00, 0x58, 0x00, 0x05, 0x00, 0x40, 0x53,
   0x95, 0x54, 0xC0, 0x07, 0x00, 0x60, 0x00, 0x00, 0x38, 0x00, 0x06, 0x00,
   0x00, 0xBE, 0xFF, 0xBF, 0xD5, 0x0B, 0x00, 0x58, 0x00, 0x00, 0x78, 0x00,
   0x06, 0x00, 0x00, 0xC1, 0x24, 0x69, 0xEB, 0x2F, 0x00, 0x2C, 0x00, 0x00,
   0x38, 0x00, 0x05, 0x00, 0x00, 0x00, 0x00, 0x80, 0xD4, 0x5A, 0x20, 0x17,
   0x00, 0x00, 0x3C, 0x00, 0x04, 0x00, 0x00, 0x00, 0x00, 0x00, 0x48, 0x35,
   0xB0, 0x0F, 0x00, 0x00, 0x5C, 0x00, 0x0C, 0x8C, 0x00, 0x00, 0x00, 0x40,
   0xF2, 0x68, 0xE8, 0x0F, 0x00, 0x00, 0x3A, 0x00, 0x04, 0xCC, 0x00, 0x00,
   0x80, 0xB4, 0x7F, 0xA0, 0xF8, 0x7E, 0x00, 0x00, 0x3D, 0x00, 0x0C, 0x6C,
   0x00, 0x00, 0xB5, 0x5B, 0x61, 0x00, 0xD6, 0xBD, 0x00, 0x00, 0x5F, 0x49,
   0x17, 0x9C, 0x00, 0x90, 0x5A, 0x24, 0xF3, 0x01, 0x68, 0xF6, 0x25, 0xC1,
   0xFE, 0xB6, 0x0D, 0x9C, 0x00, 0x20, 0xA5, 0x00, 0xAA, 0x02, 0xC7, 0xDA,
   0xDB, 0xBE, 0xFD, 0x2B, 0x07, 0x8C, 0x00, 0xB4, 0x00, 0x00, 0x5A, 0x03,
   0xA6, 0x4F, 0xFF, 0xFF, 0xF6, 0x97, 0x0A, 0x8C, 0x00, 0x0C, 0x80, 0x00,
   0x0E, 0x85, 0x01, 0x0D, 0x7E, 0x05, 0xBC, 0x7E, 0x07, 0x8C, 0x00, 0x02,
   0x00, 0x01, 0x1C, 0x44, 0x87, 0x02, 0x00, 0x00, 0x58, 0x80, 0x06, 0x8C,
   0x00, 0x04, 0x80, 0x4A, 0x3F, 0xD2, 0x82, 0x05, 0x20, 0x00, 0x28, 0x00,
   0x07, 0x9C, 0x00, 0x58, 0x20, 0xAD, 0x2A, 0x65, 0xC9, 0x01, 0x00, 0x00,
   0x70, 0x00, 0x02, 0x6C, 0x00, 0xA0, 0x6D, 0x51, 0x71, 0x9F, 0x70, 0x01,
   0x00, 0x00, 0x18, 0x00, 0x07, 0x6C, 0x00, 0xD0, 0x16, 0x02, 0xC0, 0x3F,
   0xB8, 0x00, 0x00, 0x00, 0x28, 0x80, 0x02, 0x9C, 0x00, 0x00, 0x08, 0x00,
   0x80, 0x4A, 0x34, 0x00, 0x00, 0x00, 0xBA, 0x7B, 0x03, 0xCC, 0x00, 0x00,
   0x00, 0x00, 0x00, 0x50, 0x1A, 0x01, 0x00, 0x00, 0xDD, 0x2C, 0x01, 0x9C,
   0x00, 0x00, 0x00, 0x00, 0x00, 0xA0, 0x16, 0x02, 0x80, 0xD4, 0x0A, 0x91,
   0x00, 0x9C, 0x00, 0x00, 0x00, 0x00, 0x00, 0x00, 0x2F, 0x01, 0x50, 0xB2,
   0x05, 0x00, 0x00, 0x9C, 0x00, 0x00, 0x00, 0x00, 0x00, 0x00, 0xF8, 0xE7,
   0xFF, 0x2F, 0x00, 0x00, 0x00, 0xCC, 0x00, 0x00, 0x00, 0x00, 0x00, 0x00,
   0x80, 0xBE, 0x2D, 0x00, 0x00, 0x00, 0x00, 0x00, 0x00, 0x00, 0x00, 0x00,
   0x00, 0x00, 0x40, 0x68, 0x82, 0x00, 0x00, 0x00, 0x00, 0xCC, 0x00, 0x00,
   0x00, 0x00, 0x00, 0x00, 0x00, 0x00, 0x00, 0x00, 0x00, 0x00, 0x00, 0xDC,
   0x00, 0x00, 0x00, 0x00, 0x00, 0x00, 0x00, 0x00, 0x00, 0x00, 0x00, 0x00,
   0x00, 0x00, 0x00, 0x00, 0x00, 0x00, 0x00, 0x00, 0x00, 0x00, 0x00, 0x00,
   0x00, 0x00, 0x00, 0x6C, 0x00, 0x00, 0x00, 0x00, 0x00, 0x00, 0x00, 0x00,
   0x00, 0x00, 0x00, 0x00, 0x00, 0x9C, 0x00, 0x00, 0x00, 0x00, 0x00, 0x00,
   0x00, 0x00, 0x00, 0x00, 0x00, 0x00, 0x00, 0x00, 0x00, 0x00, 0x00, 0x00,
   0x00, 0x00, 0x00, 0x00, 0x00, 0x00, 0x00, 0x00, 0x00, 0x9C, 0x00, 0x00,
   0x00, 0x00, 0x00, 0x00, 0x00, 0x00, 0x00, 0x00, 0x00, 0x00, 0x00, 0xCC
};
