#define Hand4_xbm_width 106
#define Hand4_xbm_height 60
static char Hand4_xbm_bits[] = {
   0x00, 0x00, 0x00, 0x00, 0x00, 0x00, 0x00, 0x00, 0x00, 0x00, 0x00, 0x00,
   0x00, 0x00, 0x00, 0x00, 0x00, 0x00, 0x00, 0x00, 0x00, 0x00, 0x00, 0x00,
   0x00, 0x00, 0x00, 0x00, 0x00, 0x00, 0x00, 0x00, 0x00, 0x00, 0x00, 0x00,
   0x00, 0x00, 0x00, 0x00, 0x00, 0x00, 0x00, 0xA0, 0xDA, 0x0A, 0x00, 0x00,
   0x00, 0x00, 0x00, 0x00, 0x00, 0x00, 0x00, 0x00, 0x00, 0x50, 0xB5, 0xB5,
   0x00, 0x00, 0x00, 0x00, 0x00, 0x00, 0x00, 0x00, 0x00, 0x6C, 0x00, 0xA8,
   0x00, 0x5A, 0xBF, 0x00, 0x00, 0x00, 0x00, 0x00, 0x00, 0x00, 0x00, 0x5C,
   0x00, 0x18, 0x00, 0x80, 0xF6, 0x2F, 0x00, 0x00, 0x00, 0x00, 0x00, 0x00,
   0x00, 0x30, 0x00, 0x04, 0x00, 0x01, 0x1C, 0xFF, 0xDF, 0xFF, 0xFF, 0x00,
   0x00, 0x00, 0x00, 0xA8, 0x00, 0x18, 0x80, 0x00, 0xA6, 0xBC, 0xBB, 0xFF,
   0x5B, 0x0B, 0x00, 0x00, 0x00, 0x90, 0x00, 0x28, 0x80, 0x01, 0x0A, 0x48,
   0x64, 0xF4, 0xA5, 0xF5, 0x00, 0x00, 0x00, 0x28, 0x00, 0x50, 0x81, 0x00,
   0x03, 0x06, 0x10, 0x5A, 0x00, 0xEA, 0x05, 0x00, 0x00, 0xFC, 0x00, 0xF0,
   0xAA, 0x02, 0x04, 0x06, 0x28, 0xAD, 0x00, 0x40, 0x0B, 0xA0, 0x03, 0xD0,
   0x00, 0x00, 0xDD, 0xAD, 0x02, 0x05, 0x90, 0x06, 0x00, 0x00, 0xFD, 0xFF,
   0x07, 0x00, 0x00, 0x00, 0x00, 0xD4, 0x17, 0x03, 0x60, 0x03, 0x00, 0x00,
   0x7C, 0xFF, 0x0F, 0xC8, 0x00, 0x00, 0x00, 0xA8, 0xAA, 0x02, 0xD0, 0x00,
   0x00, 0x00, 0xFC, 0xFF, 0x07, 0x48, 0x00, 0x00, 0x00, 0x00, 0x76, 0x03,
   0x60, 0x01, 0x00, 0x00, 0xB8, 0x56, 0x0D, 0x14, 0x00, 0x00, 0x00, 0x00,
   0xC0, 0x01, 0x78, 0x00, 0x00, 0x00, 0x5C, 0x08, 0x1A, 0xA4, 0x00, 0x00,
   0x00, 0x00, 0x00, 0x03, 0x20, 0x00, 0x00, 0x00, 0x30, 0x00, 0x18, 0x5C,
   0x00, 0x00, 0x00, 0x00, 0x00, 0x03, 0x1C, 0x40, 0x00, 0x00, 0x1C, 0x00,
   0x30, 0x6C, 0x00, 0x00, 0x80, 0x24, 0x89, 0x02, 0x0A, 0x20, 0x01, 0x00,
   0x78, 0x00, 0x10, 0xD0, 0x00, 0x00, 0x55, 0x55, 0x55, 0x03, 0x16, 0x70,
   0x00, 0x00, 0x14, 0x00, 0x30, 0xC0, 0x00, 0xE8, 0xFA, 0xFB, 0xFE, 0x03,
   0x0F, 0xC0, 0x01, 0x00, 0x78, 0x00, 0x40, 0x58, 0xC0, 0x57, 0x07, 0x14,
   0x81, 0x02, 0x17, 0x30, 0x00, 0x00, 0x1C, 0x00, 0x30, 0x08, 0xA0, 0x08,
   0x02, 0x38, 0x00, 0x83, 0x0B, 0x58, 0x00, 0x00, 0xAC, 0x6F, 0x5B, 0xC4,
   0x40, 0x01, 0x02, 0x08, 0x00, 0x01, 0x17, 0x18, 0x00, 0x00, 0x5F, 0x99,
   0x2A, 0xE0, 0x40, 0x00, 0x04, 0x30, 0x00, 0x83, 0x08, 0x6C, 0x00, 0x80,
   0xEA, 0xCD, 0x75, 0x58, 0xA0, 0x00, 0x01, 0x18, 0x80, 0xC3, 0x00, 0xBE,
   0x00, 0xD0, 0xE7, 0xB2, 0x6F, 0x00, 0x50, 0x00, 0x06, 0x34, 0x80, 0xA2,
   0x00, 0xF5, 0x2F, 0xEA, 0xE3, 0xFF, 0x7F, 0x00, 0xA0, 0xA0, 0x5E, 0x59,
   0x55, 0xE3, 0x80, 0xE2, 0xFF, 0x7F, 0xC4, 0x01, 0x30, 0x00, 0x40, 0x5F,
   0xAA, 0xBD, 0xAB, 0xDD, 0x00, 0xA7, 0x7A, 0x11, 0xA1, 0x01, 0x50, 0x00,
   0x00, 0x82, 0x50, 0x62, 0x5A, 0xB7, 0x80, 0x43, 0xD5, 0x04, 0xC0, 0x02,
   0x38, 0x00, 0x00, 0x00, 0x00, 0x80, 0xE4, 0x9E, 0xC1, 0x85, 0x26, 0x01,
   0x80, 0x01, 0x30, 0x00, 0x00, 0x00, 0x00, 0x54, 0x0F, 0x45, 0x20, 0x03,
   0x0A, 0x02, 0xC0, 0x05, 0x58, 0x00, 0x00, 0x00, 0x90, 0xBB, 0x03, 0xB4,
   0x70, 0x04, 0x30, 0x00, 0x40, 0x03, 0x28, 0x00, 0x00, 0x40, 0x6A, 0x25,
   0x02, 0x6C, 0x2A, 0x0A, 0x40, 0x00, 0xC0, 0x45, 0x18, 0x00, 0x00, 0x20,
   0x85, 0x02, 0x0B, 0x58, 0x05, 0x04, 0x00, 0x00, 0xA0, 0xBB, 0x0F, 0x00,
   0x00, 0xF8, 0x80, 0x00, 0x06, 0xB4, 0x05, 0x0C, 0x00, 0x00, 0xC0, 0xFF,
   0x0F, 0x00, 0x00, 0x10, 0x00, 0x01, 0x0A, 0xF0, 0x00, 0x18, 0x00, 0x00,
   0x60, 0x55, 0x05, 0x00, 0x00, 0x14, 0x00, 0x03, 0x96, 0x6E, 0x01, 0x14,
   0x00, 0x00, 0x3C, 0x00, 0x00, 0x00, 0x00, 0x08, 0x80, 0x56, 0x5F, 0x01,
   0x03, 0x28, 0x00, 0x00, 0x1F, 0x00, 0x00, 0x00, 0x00, 0x08, 0x00, 0xAB,
   0x2A, 0x82, 0x02, 0x18, 0x00, 0xA0, 0x0D, 0x00, 0x00, 0x00, 0x00, 0xB0,
   0xD4, 0x95, 0x04, 0x40, 0x0F, 0x60, 0x00, 0xD4, 0x02, 0x00, 0x00, 0x00,
   0x00, 0x50, 0x29, 0x22, 0x00, 0xA0, 0x07, 0x20, 0x40, 0x3B, 0x01, 0x00,
   0x00, 0x00, 0x00, 0x40, 0x02, 0x00, 0x00, 0xD0, 0x18, 0xC0, 0xFF, 0x45,
   0x00, 0x00, 0x00, 0x00, 0x00, 0x00, 0x00, 0x00, 0x00, 0x2C, 0xA8, 0x74,
   0x15, 0x02, 0x00, 0x00, 0x00, 0x00, 0x00, 0x00, 0x00, 0x00, 0x00, 0x1A,
   0xE0, 0xBA, 0x0A, 0x00, 0x00, 0x00, 0x00, 0x00, 0x00, 0x00, 0x00, 0x00,
   0x80, 0x0D, 0x70, 0x47, 0x00, 0x00, 0x00, 0x00, 0x00, 0x00, 0x00, 0x00,
   0x00, 0x00, 0xC0, 0x3B, 0xB8, 0x00, 0x00, 0x00, 0x00, 0x00, 0x00, 0x00,
   0x00, 0x00, 0x00, 0x00, 0x7C, 0x50, 0x56, 0x00, 0x00, 0x00, 0x00, 0x00,
   0x00, 0x00, 0x00, 0x00, 0x00, 0x00, 0x6A, 0x60, 0x1B, 0x00, 0x00, 0x00,
   0x00, 0x00, 0x00, 0x00, 0x00, 0x00, 0x00, 0xC0, 0x41, 0xA0, 0x05, 0x00,
   0x00, 0x00, 0x00, 0x00, 0x00, 0x00, 0x00, 0x00, 0x00, 0xA0, 0x80, 0xE9,
   0x00, 0x00, 0x00, 0x00, 0x00, 0x00, 0x00, 0x00, 0x00, 0x00, 0x00, 0x40,
   0x80, 0x72, 0x01, 0x00, 0x00, 0x00, 0x00, 0x00, 0x00, 0x00, 0x00, 0x00,
   0x00, 0x30, 0x00, 0x1F, 0x00, 0x00, 0x00, 0x00, 0x00, 0x00, 0x00, 0x00,
   0x00, 0x00, 0x00, 0x20, 0xC0, 0x0A, 0x00, 0x00, 0x00, 0x00, 0x00, 0x00,
   0x00, 0x00, 0x00, 0x00, 0x00, 0xA0, 0x74, 0x01, 0x00, 0x00, 0x00, 0x00,
   0x00, 0x00, 0x00, 0x00, 0x00, 0x00, 0x00, 0x40, 0xA9, 0x00, 0x00, 0x00,
   0x00, 0x00, 0x00, 0x00, 0x00, 0x00, 0x00, 0x00, 0x00, 0x80, 0x0A, 0x00,
   0x00, 0x00, 0x00, 0x00, 0x00, 0x00, 0x00, 0x00, 0x00, 0x00, 0x00, 0x00,
   0x00, 0x00, 0x00, 0x00, 0x00, 0x00, 0x00, 0x00, 0x00, 0x00, 0x00, 0x00,
   0x00, 0x00, 0x00, 0x00, 0x00, 0x00, 0x00, 0x00, 0x00, 0x00, 0x00, 0x00
};
