#define Hand1_xbm_width 106
#define Hand1_xbm_height 60
static char Hand1_xbm_bits[] = {
   0x00, 0x00, 0x00, 0x00, 0x00, 0x00, 0x00, 0x00, 0x00, 0x00, 0x00, 0x00,
   0x00, 0xFC, 0x00, 0x00, 0x00, 0x00, 0x00, 0x00, 0x00, 0x00, 0x00, 0x00,
   0x00, 0x00, 0x00, 0xFC, 0x00, 0x00, 0x00, 0x00, 0x00, 0x00, 0x00, 0x00,
   0x00, 0x00, 0x00, 0x00, 0x00, 0xFC, 0x00, 0x00, 0x00, 0x00, 0x00, 0x00,
   0x00, 0x00, 0x00, 0x00, 0x00, 0x00, 0x00, 0xFC, 0x00, 0x00, 0x00, 0x00,
   0x00, 0x00, 0x00, 0x00, 0x00, 0x00, 0x00, 0x00, 0x00, 0xFC, 0x00, 0x00,
   0x00, 0x00, 0x00, 0x00, 0x00, 0x00, 0x00, 0x00, 0x00, 0x00, 0x00, 0xFC,
   0x00, 0x00, 0x00, 0x00, 0x00, 0x00, 0x00, 0x00, 0x00, 0x00, 0x00, 0x00,
   0x00, 0xFC, 0x00, 0x00, 0x00, 0x00, 0x00, 0x00, 0x00, 0xA0, 0x05, 0x00,
   0x00, 0x00, 0x00, 0xFC, 0x00, 0x00, 0x00, 0x00, 0x00, 0x00, 0x00, 0x7D,
   0x3B, 0x00, 0x00, 0x00, 0x00, 0xFC, 0x00, 0x00, 0x00, 0x00, 0x00, 0x00,
   0xA0, 0x96, 0xA8, 0x01, 0x00, 0x00, 0x00, 0xFC, 0x00, 0x00, 0x00, 0x00,
   0x00, 0x00, 0x74, 0x01, 0x40, 0x0B, 0x00, 0x00, 0x00, 0xFC, 0x00, 0x00,
   0x00, 0x00, 0x00, 0x00, 0x5C, 0x00, 0x80, 0x36, 0x00, 0x00, 0x00, 0xFC,
   0x00, 0x00, 0x00, 0x00, 0x00, 0xD5, 0x7B, 0x00, 0x10, 0xE8, 0x00, 0x00,
   0x00, 0xFC, 0x00, 0x00, 0x00, 0x00, 0xF4, 0xEF, 0xB0, 0x00, 0x00, 0x00,
   0x07, 0x00, 0x00, 0xFC, 0x00, 0x00, 0x00, 0x50, 0xAB, 0x72, 0x69, 0x00,
   0x18, 0x80, 0x0E, 0x00, 0x00, 0xFC, 0x00, 0x00, 0x00, 0xE8, 0x16, 0xA7,
   0xA0, 0x00, 0x20, 0x00, 0x38, 0x00, 0x00, 0xFC, 0x00, 0x00, 0xD0, 0x37,
   0x01, 0x15, 0x10, 0x40, 0x0A, 0x00, 0xF4, 0x22, 0x00, 0xFC, 0x00, 0x00,
   0x7E, 0x61, 0x80, 0x3A, 0x00, 0x88, 0x1D, 0x00, 0xF8, 0xFF, 0x07, 0xFC,
   0x00, 0xA0, 0xAD, 0x30, 0x00, 0x1F, 0x00, 0xF2, 0x07, 0x00, 0xF0, 0xFF,
   0x0B, 0xFC, 0x00, 0xA8, 0x14, 0x50, 0x00, 0x77, 0x00, 0xFF, 0x02, 0x00,
   0xF0, 0xAA, 0x06, 0xFC, 0x00, 0x5D, 0x08, 0x20, 0xC0, 0x6D, 0x80, 0xFE,
   0x01, 0x00, 0x68, 0x45, 0x0C, 0x00, 0x80, 0x06, 0x08, 0x70, 0x80, 0xC2,
   0x80, 0xFF, 0x00, 0x00, 0x70, 0x00, 0x08, 0x00, 0x80, 0x01, 0x08, 0x20,
   0xF0, 0x21, 0x60, 0xC9, 0x01, 0x00, 0xB8, 0x00, 0x10, 0x00, 0xC0, 0x00,
   0x10, 0x40, 0x9A, 0x57, 0xF0, 0xD4, 0x02, 0x00, 0x78, 0x00, 0x28, 0x00,
   0x40, 0x00, 0x10, 0xD0, 0x4E, 0x2B, 0x34, 0xCC, 0x01, 0x00, 0x74, 0x00,
   0x10, 0x00, 0x80, 0x00, 0x68, 0x6D, 0x0B, 0x9D, 0xDA, 0xB4, 0x03, 0x00,
   0x5A, 0x00, 0x68, 0x00, 0x40, 0x00, 0xB2, 0xDB, 0x16, 0xB6, 0x2D, 0xE8,
   0x03, 0x80, 0x8E, 0xDA, 0x36, 0x00, 0x40, 0x49, 0x95, 0x00, 0x08, 0xD8,
   0x82, 0xFA, 0x07, 0x40, 0x67, 0xA5, 0x7A, 0x00, 0x80, 0x9A, 0x00, 0x00,
   0x08, 0x00, 0x75, 0x75, 0x1E, 0xF8, 0xF4, 0x7A, 0x37, 0x00, 0x00, 0x44,
   0x00, 0x00, 0x28, 0xA0, 0x8A, 0xCA, 0x7D, 0x6D, 0xE9, 0xDF, 0xFF, 0x00,
   0x00, 0x00, 0x00, 0x00, 0x50, 0xD4, 0x25, 0xA4, 0xEC, 0x1E, 0xE0, 0xBF,
   0x6D, 0x00, 0x00, 0x00, 0x00, 0x00, 0xB0, 0x6E, 0x00, 0x42, 0x1B, 0x5F,
   0x90, 0xDF, 0x60, 0x00, 0x00, 0x00, 0x00, 0x00, 0xC0, 0x05, 0x00, 0x04,
   0x06, 0x00, 0xC0, 0x03, 0x40, 0x00, 0x00, 0x00, 0x00, 0x00, 0x00, 0x03,
   0x00, 0x08, 0x1D, 0x00, 0x00, 0x0F, 0xA0, 0x00, 0x00, 0x00, 0x00, 0x00,
   0x80, 0x02, 0x00, 0x50, 0x0F, 0x00, 0x80, 0x03, 0x60, 0x00, 0x00, 0x00,
   0x00, 0x00, 0x00, 0x03, 0x00, 0xE8, 0x2B, 0x00, 0x00, 0x0E, 0x50, 0x00,
   0x00, 0x00, 0x00, 0x00, 0x00, 0x01, 0x00, 0x1F, 0x1B, 0x00, 0x80, 0x07,
   0x60, 0x00, 0x00, 0x00, 0x00, 0x00, 0x00, 0x06, 0xC0, 0x31, 0x2C, 0x00,
   0x00, 0x0C, 0x60, 0x00, 0x00, 0x00, 0x00, 0x00, 0x00, 0x09, 0x50, 0x22,
   0x1C, 0x00, 0x00, 0x07, 0x5A, 0x00, 0x00, 0x00, 0x00, 0x00, 0x00, 0x16,
   0x2A, 0x00, 0x0A, 0x00, 0x00, 0xEC, 0x75, 0x00, 0x00, 0x00, 0x00, 0x00,
   0x00, 0x1C, 0x15, 0x20, 0x0C, 0x00, 0x00, 0xBF, 0x3F, 0x00, 0x00, 0x00,
   0x00, 0x00, 0x00, 0xEA, 0x06, 0x00, 0x07, 0x00, 0x00, 0xFC, 0x7F, 0x00,
   0x00, 0x00, 0x00, 0x00, 0x00, 0x90, 0x03, 0xE0, 0x01, 0x00, 0x80, 0xFF,
   0x2F, 0x00, 0x00, 0x00, 0x00, 0x00, 0x00, 0x40, 0x07, 0xA8, 0x00, 0x00,
   0x40, 0x57, 0x01, 0x00, 0x00, 0x00, 0x00, 0x00, 0x00, 0x00, 0x05, 0x30,
   0x00, 0x00, 0xD0, 0xAA, 0x04, 0x00, 0x00, 0x00, 0x00, 0x00, 0x00, 0x00,
   0x0E, 0x5C, 0x00, 0x00, 0x6C, 0x00, 0x00, 0x00, 0x00, 0x00, 0x00, 0x00,
   0x00, 0x00, 0x14, 0x36, 0x00, 0x40, 0x1F, 0x00, 0x00, 0x00, 0x00, 0x00,
   0x00, 0x00, 0x00, 0x00, 0x2C, 0x4A, 0x00, 0xB0, 0x03, 0x00, 0x00, 0x00,
   0x00, 0x00, 0x00, 0x00, 0x00, 0x00, 0x48, 0x23, 0x00, 0x6D, 0x01, 0x00,
   0x00, 0x00, 0x00, 0x00, 0x00, 0x00, 0x00, 0x00, 0x34, 0x44, 0xA1, 0x5E,
   0x00, 0x00, 0x00, 0x00, 0x00, 0x00, 0x00, 0x00, 0x00, 0x00, 0xD8, 0xA1,
   0xDA, 0x01, 0x00, 0x00, 0x00, 0x00, 0x00, 0x00, 0x00, 0x00, 0x00, 0x00,
   0xA0, 0xFF, 0x2F, 0x04, 0x00, 0x00, 0x00, 0x00, 0x00, 0x00, 0x00, 0x00,
   0x00, 0x00, 0x00, 0x54, 0x00, 0x00, 0x00, 0x00, 0x00, 0x00, 0x00, 0x00,
   0x00, 0x00, 0x00, 0x00, 0x00, 0x28, 0x00, 0x00, 0x00, 0x00, 0x00, 0x00,
   0x00, 0x00, 0x00, 0x00, 0x00, 0x00, 0x00, 0x00, 0x00, 0x00, 0x00, 0x00,
   0x00, 0x00, 0x00, 0x00, 0x00, 0x00, 0x00, 0x00, 0x00, 0x00, 0x00, 0x00,
   0x00, 0x00, 0x00, 0x00, 0x00, 0x00, 0x00, 0x00, 0x00, 0x00, 0x00, 0x00,
   0x00, 0x00, 0x00, 0x00, 0x00, 0x00, 0x00, 0x00, 0x00, 0x00, 0x00, 0x00,
   0x00, 0x00, 0x00, 0x00, 0x00, 0x00, 0x00, 0x00, 0x00, 0x00, 0x00, 0x00,
   0x00, 0x00, 0x00, 0x00, 0x00, 0x00, 0x00, 0x00, 0x00, 0x00, 0x00, 0x00,
   0x00, 0x00, 0x00, 0x00, 0x00, 0x00, 0x00, 0x00, 0x00, 0x00, 0x00, 0x00
};
