#define Marimba_xbm_width 61
#define Marimba_xbm_height 68
static char Marimba_xbm_bits[] = {
   0x00, 0x00, 0x00, 0x00, 0x00, 0x00, 0x00, 0x00, 0x00, 0x00, 0x00, 0x00,
   0x00, 0x00, 0x00, 0x00, 0x00, 0x00, 0x00, 0x00, 0x00, 0x00, 0x00, 0x00,
   0x00, 0x00, 0x00, 0x00, 0x00, 0x00, 0x00, 0x80, 0x00, 0x00, 0x00, 0x00,
   0x00, 0x00, 0x00, 0x60, 0x00, 0x00, 0x00, 0x00, 0x00, 0x00, 0x00, 0x00,
   0x00, 0x00, 0x00, 0x00, 0x00, 0x00, 0x00, 0x00, 0x00, 0x00, 0x00, 0x00,
   0x00, 0x00, 0x00, 0x00, 0x00, 0x00, 0x00, 0x80, 0x1F, 0x00, 0x00, 0x00,
   0x00, 0x00, 0x00, 0x40, 0x69, 0x00, 0x00, 0x00, 0x00, 0x00, 0x00, 0x60,
   0xD2, 0x2C, 0x00, 0x00, 0x00, 0x00, 0x00, 0xB0, 0x60, 0x5B, 0x00, 0x00,
   0x00, 0x00, 0x00, 0x7E, 0x80, 0xA3, 0x00, 0x00, 0x00, 0x00, 0x00, 0x63,
   0x01, 0x86, 0x01, 0x00, 0x00, 0x00, 0xC0, 0x80, 0x05, 0x05, 0x03, 0x00,
   0x00, 0x00, 0x40, 0x01, 0x06, 0x08, 0x0C, 0x00, 0x00, 0x00, 0x34, 0x00,
   0x1C, 0x1C, 0x15, 0x00, 0x00, 0x00, 0x1B, 0x00, 0x68, 0x28, 0x1A, 0x00,
   0x00, 0x80, 0x02, 0x00, 0xD0, 0x30, 0x28, 0x00, 0x00, 0x40, 0x01, 0x00,
   0x60, 0xC1, 0x60, 0x00, 0x00, 0x40, 0x00, 0x00, 0xD0, 0xA3, 0xA1, 0x40,
   0x00, 0xC0, 0x00, 0x00, 0xF8, 0xC3, 0x41, 0x01, 0x00, 0xA0, 0x00, 0x15,
   0xFC, 0x83, 0xA5, 0x41, 0x00, 0x60, 0x00, 0xAA, 0x60, 0xEB, 0xFB, 0x43,
   0x00, 0x20, 0x00, 0x5E, 0x49, 0xD3, 0xF7, 0x01, 0x00, 0x30, 0x00, 0xF4,
   0x02, 0x44, 0x8A, 0x02, 0x00, 0x10, 0x00, 0xD8, 0x01, 0x8B, 0x26, 0x05,
   0x00, 0x14, 0x06, 0x50, 0x07, 0x06, 0x04, 0x02, 0x00, 0xD8, 0x0A, 0xA8,
   0x02, 0x06, 0x02, 0x01, 0x00, 0x4C, 0x07, 0x90, 0x02, 0x05, 0x85, 0x02,
   0x00, 0xAC, 0x0E, 0xD8, 0x05, 0x02, 0x02, 0x01, 0x00, 0x0A, 0x2D, 0x50,
   0x03, 0x05, 0x84, 0x01, 0x00, 0x06, 0x18, 0xB8, 0x02, 0x02, 0x83, 0x02,
   0x00, 0x07, 0x20, 0xFE, 0x02, 0x05, 0x44, 0x01, 0x00, 0x01, 0x58, 0x6D,
   0x03, 0x02, 0xC3, 0x00, 0x00, 0x07, 0xA0, 0xB6, 0x05, 0x06, 0xA2, 0x00,
   0x80, 0x02, 0x78, 0x81, 0x03, 0x01, 0x25, 0x00, 0x00, 0x01, 0xF4, 0x80,
   0xD7, 0x06, 0xDE, 0x00, 0x80, 0x01, 0xB8, 0x81, 0xA1, 0xA9, 0x35, 0x00,
   0x80, 0x02, 0x8C, 0x03, 0x53, 0x55, 0x2A, 0x00, 0x80, 0x00, 0x8A, 0xAA,
   0x82, 0xBA, 0x11, 0x00, 0x40, 0x01, 0x00, 0x57, 0xFD, 0x41, 0x0F, 0x00,
   0x80, 0x00, 0x00, 0xAE, 0x57, 0x8A, 0x0B, 0x00, 0x80, 0x02, 0x00, 0xF4,
   0x6F, 0xEF, 0x05, 0xE0, 0x80, 0x01, 0x00, 0xFE, 0xBF, 0xDE, 0x01, 0x00,
   0x80, 0x01, 0x00, 0x58, 0xE3, 0x7B, 0x00, 0x00, 0xC0, 0x02, 0x00, 0xFE,
   0xF1, 0x3A, 0x00, 0x00, 0xC0, 0x01, 0x00, 0x2A, 0xA8, 0x1F, 0x00, 0xE0,
   0xB0, 0x02, 0x80, 0x86, 0x54, 0x06, 0x00, 0x00, 0x40, 0x41, 0x50, 0xBF,
   0x1E, 0x00, 0x00, 0x00, 0xF0, 0xB1, 0xE4, 0xFB, 0x07, 0x00, 0x00, 0x00,
   0xE0, 0xE0, 0xFF, 0xF7, 0x0B, 0x00, 0x00, 0x00, 0x60, 0xC0, 0xEF, 0xF5,
   0x03, 0x00, 0x00, 0x00, 0xC0, 0x40, 0xF0, 0xD2, 0x03, 0x00, 0x00, 0x00,
   0x80, 0x01, 0xE0, 0xF9, 0x01, 0x00, 0x00, 0x00, 0x80, 0x02, 0xD0, 0xA0,
   0x03, 0x00, 0x00, 0x00, 0x00, 0x0B, 0x78, 0xF9, 0x00, 0x00, 0x00, 0x00,
   0x00, 0x1D, 0xE8, 0xF8, 0x01, 0x00, 0x00, 0x00, 0x00, 0xF6, 0x7A, 0x7E,
   0x00, 0x00, 0x00, 0x00, 0x00, 0x78, 0x7D, 0xBF, 0x00, 0x00, 0x00, 0x00,
   0x00, 0x80, 0xDB, 0x4A, 0x00, 0x00, 0x00, 0x00, 0x00, 0x00, 0x24, 0x05,
   0x00, 0x00, 0x00, 0x00, 0x00, 0x00, 0x00, 0x00, 0x00, 0x00, 0x00, 0x00,
   0x00, 0x00, 0x00, 0x00, 0x00, 0x00, 0x00, 0x00, 0x00, 0x00, 0x00, 0x00,
   0x00, 0x00, 0x00, 0x00, 0x00, 0x00, 0x00, 0x00, 0x00, 0x00, 0x00, 0x00,
   0x00, 0x00, 0x00, 0x00, 0x00, 0x00, 0x00, 0x00, 0x00, 0x00, 0x00, 0x00,
   0x00, 0x00, 0x00, 0x00 };
