#define Sync_xbm_width 61
#define Sync_xbm_height 115
static char Sync_xbm_bits[] = {
   0x00, 0x00, 0x00, 0x00, 0x00, 0x00, 0x00, 0x00, 0x00, 0x00, 0x00, 0x00,
   0x00, 0x00, 0x00, 0x00, 0x00, 0x00, 0x00, 0x00, 0x00, 0x00, 0x00, 0x40,
   0x00, 0x00, 0x00, 0x00, 0x00, 0x00, 0x00, 0x00, 0x00, 0x00, 0x00, 0x00,
   0x00, 0x00, 0x00, 0xA0, 0x00, 0x00, 0x00, 0x00, 0x00, 0x00, 0x00, 0x40,
   0x00, 0x00, 0x00, 0x00, 0x00, 0x00, 0x00, 0xE0, 0x00, 0x00, 0x00, 0x00,
   0x00, 0x00, 0x00, 0x00, 0x00, 0x00, 0x00, 0x00, 0x00, 0x00, 0x00, 0x20,
   0x00, 0x00, 0x00, 0x00, 0x00, 0x00, 0x00, 0xA0, 0x00, 0x00, 0x00, 0x00,
   0x00, 0x00, 0x00, 0x40, 0x00, 0x00, 0x00, 0x00, 0x00, 0x00, 0x00, 0xE0,
   0x00, 0x00, 0x00, 0x00, 0x00, 0x00, 0x00, 0x20, 0x00, 0x00, 0x00, 0x00,
   0x00, 0x00, 0x00, 0xE0, 0x00, 0x00, 0x00, 0x00, 0x00, 0x00, 0x00, 0xC0,
   0x00, 0x00, 0x00, 0x00, 0x00, 0x00, 0x00, 0xE0, 0x00, 0x00, 0x00, 0x00,
   0x00, 0x00, 0x00, 0x20, 0x00, 0x00, 0x00, 0x00, 0x28, 0x00, 0x00, 0x00,
   0x00, 0x00, 0x00, 0xC0, 0xD5, 0x94, 0x00, 0xE0, 0x00, 0x00, 0x00, 0x40,
   0x6A, 0x6B, 0x01, 0x00, 0x00, 0x00, 0x00, 0xA0, 0xD0, 0x95, 0x02, 0x20,
   0x00, 0x00, 0x00, 0x72, 0xFC, 0x02, 0x02, 0xA0, 0x00, 0x00, 0xC0, 0x1A,
   0xA6, 0x01, 0x05, 0x20, 0x00, 0x00, 0x20, 0xB5, 0x16, 0x07, 0x02, 0x40,
   0x00, 0x00, 0x60, 0x60, 0x03, 0x2B, 0x0E, 0x20, 0x00, 0x00, 0x18, 0xA0,
   0x8F, 0x5E, 0x06, 0x00, 0x00, 0x00, 0x14, 0x40, 0x15, 0xAB, 0x0E, 0x20,
   0x00, 0x00, 0x3A, 0xA0, 0xAB, 0xC5, 0x0F, 0xE0, 0x00, 0x80, 0x6B, 0x40,
   0x72, 0x81, 0x07, 0x20, 0x00, 0x40, 0x51, 0x20, 0x06, 0x50, 0x0F, 0x00,
   0x00, 0xE0, 0x60, 0x40, 0x0C, 0xF0, 0x0F, 0x40, 0x00, 0x30, 0x80, 0x80,
   0x38, 0xF0, 0x0C, 0x80, 0x00, 0x50, 0x60, 0x41, 0x2C, 0x54, 0x07, 0x20,
   0x00, 0x28, 0x80, 0x80, 0xD2, 0x23, 0x0A, 0xC0, 0x00, 0x5C, 0x80, 0x40,
   0xA4, 0x07, 0x04, 0x20, 0x00, 0xF4, 0x41, 0x81, 0xC0, 0x0A, 0x0C, 0xE0,
   0x00, 0xAA, 0x80, 0x50, 0xFD, 0x01, 0x14, 0x20, 0x00, 0x44, 0x03, 0x8B,
   0xFC, 0x05, 0x0C, 0x60, 0x00, 0x8A, 0xA0, 0x74, 0xEB, 0x03, 0x14, 0xC0,
   0x00, 0x56, 0x47, 0x81, 0xF1, 0x01, 0x08, 0x00, 0x00, 0xEE, 0x82, 0xEA,
   0xAF, 0x00, 0x18, 0x20, 0x00, 0x05, 0x93, 0xF1, 0x97, 0x02, 0x10, 0xA0,
   0x00, 0x02, 0xE6, 0xEE, 0x0B, 0x01, 0x10, 0xA0, 0x00, 0x06, 0xA4, 0x97,
   0x03, 0x05, 0x28, 0xA0, 0x00, 0x02, 0xEC, 0xEF, 0x01, 0x03, 0x10, 0x20,
   0x00, 0x0A, 0xF8, 0x7A, 0x00, 0x04, 0x1C, 0x00, 0x00, 0x02, 0x50, 0xB4,
   0x00, 0x00, 0x0C, 0x40, 0x00, 0x06, 0x20, 0x58, 0x00, 0x00, 0x0C, 0xE0,
   0x00, 0x0A, 0x00, 0x18, 0x00, 0x00, 0x02, 0x20, 0x00, 0x04, 0x00, 0x14,
   0x00, 0x00, 0x0B, 0x20, 0x00, 0x0E, 0x00, 0x0A, 0x00, 0x80, 0x01, 0x20,
   0x00, 0x0A, 0x00, 0x1C, 0x00, 0xC0, 0x02, 0x00, 0x00, 0x0C, 0x00, 0x0A,
   0x00, 0xA0, 0x00, 0x20, 0x00, 0x0C, 0x00, 0x1C, 0x00, 0xD0, 0x00, 0x60,
   0x00, 0x18, 0x00, 0x04, 0x00, 0x30, 0x00, 0xC0, 0x00, 0x14, 0x00, 0x28,
   0x00, 0x38, 0x00, 0x80, 0x00, 0x18, 0x00, 0x10, 0x00, 0x0C, 0x00, 0xA0,
   0x00, 0x28, 0x00, 0x00, 0x00, 0x16, 0x00, 0xA0, 0x00, 0x30, 0x00, 0x20,
   0x00, 0x0D, 0x00, 0x20, 0x00, 0x60, 0x00, 0xC0, 0xD3, 0x03, 0x00, 0x40,
   0x00, 0xD0, 0x00, 0xE8, 0xFF, 0x01, 0x00, 0x60, 0x00, 0x40, 0x47, 0x7F,
   0xFF, 0x00, 0x00, 0x20, 0x00, 0xA0, 0xB5, 0xBE, 0xFE, 0x00, 0x00, 0x20,
   0x00, 0xC0, 0xFE, 0x7F, 0x78, 0x01, 0x00, 0xE0, 0x00, 0x40, 0x7F, 0x3D,
   0xF8, 0x00, 0x00, 0x00, 0x00, 0x80, 0x02, 0x7A, 0xFC, 0x00, 0x00, 0x00,
   0x00, 0x40, 0x01, 0x2E, 0x78, 0x00, 0x00, 0x00, 0x00, 0xC0, 0x00, 0x3C,
   0xFC, 0x00, 0x00, 0x00, 0x00, 0x40, 0x01, 0x5A, 0x38, 0x00, 0x00, 0xE0,
   0x00, 0x80, 0x00, 0x2C, 0xFC, 0x00, 0x00, 0x80, 0x00, 0xE0, 0x01, 0x1E,
   0x78, 0x00, 0x00, 0x00, 0x00, 0xC0, 0x00, 0x6A, 0x7C, 0x01, 0x00, 0x00,
   0x00, 0x80, 0x03, 0x14, 0x78, 0x00, 0x00, 0x00, 0x00, 0xC0, 0x0B, 0x6E,
   0x3C, 0x00, 0x00, 0x00, 0x00, 0x00, 0x3E, 0xAA, 0x1E, 0x00, 0x00, 0x00,
   0x00, 0x00, 0xE8, 0xFF, 0x07, 0x00, 0x00, 0xA0, 0x00, 0x00, 0x40, 0x35,
   0x01, 0x00, 0x00, 0x00, 0x00, 0x00, 0x00, 0x00, 0x00, 0x00, 0x00, 0x00,
   0x00, 0x00, 0x00, 0x00, 0x00, 0x00, 0x00, 0x00, 0x00, 0x00, 0x00, 0x00,
   0x00, 0x00, 0x00, 0x00, 0x00, 0x00, 0x00, 0x00, 0x00, 0x00, 0x00, 0xE0,
   0x00, 0x00, 0x00, 0x00, 0x00, 0x00, 0x00, 0xE0, 0x00, 0x00, 0x00, 0x00,
   0x00, 0x00, 0x00, 0x00, 0x00, 0x00, 0x00, 0x00, 0x00, 0x00, 0x00, 0x00,
   0x00, 0x0A, 0x00, 0x00, 0x00, 0x00, 0x00, 0x00, 0x80, 0x7F, 0x00, 0x00,
   0x00, 0x00, 0x00, 0x00, 0xC0, 0xFF, 0x00, 0x00, 0x00, 0x00, 0x00, 0xA0,
   0xC0, 0xE1, 0x01, 0x00, 0x00, 0x00, 0x00, 0x60, 0xE0, 0xC0, 0x39, 0x78,
   0xFB, 0x80, 0x1F, 0x00, 0xC0, 0x01, 0x70, 0xB8, 0xFF, 0xC1, 0x3F, 0x00,
   0xC0, 0x0F, 0x70, 0x38, 0xEF, 0xE3, 0x7D, 0x00, 0x80, 0x7F, 0x70, 0x98,
   0x87, 0xE3, 0x30, 0x00, 0x00, 0xFF, 0xE0, 0x1C, 0x87, 0x73, 0x00, 0x80,
   0x00, 0xF0, 0xE1, 0x9C, 0x83, 0x73, 0x00, 0x00, 0x40, 0xC0, 0xE3, 0x0C,
   0x87, 0x73, 0x00, 0x00, 0xE0, 0x80, 0xC1, 0x8E, 0x83, 0x73, 0x30, 0x00,
   0xE0, 0xC1, 0xC3, 0x07, 0x87, 0xE3, 0x70, 0x00, 0xC0, 0xF7, 0x81, 0x8F,
   0x83, 0xE3, 0x3D, 0x20, 0xC0, 0xFF, 0x80, 0x07, 0x87, 0xC3, 0x3F, 0x00,
   0x80, 0x7E, 0x80, 0x87, 0x83, 0x83, 0x0F, 0x80, 0x00, 0x00, 0x80, 0x03,
   0x00, 0x00, 0x00, 0x20, 0x00, 0x00, 0xC0, 0x03, 0x00, 0x00, 0x00, 0xC0,
   0x00, 0x00, 0xF0, 0x01, 0x00, 0x00, 0x00, 0x00, 0x00, 0x00, 0xA0, 0x00,
   0x00, 0x00, 0x00, 0xE0, 0x00, 0x00, 0x00, 0x00, 0x00, 0x00, 0x00, 0x40,
   0x00, 0x00, 0x00, 0x00, 0x00, 0x00, 0x00, 0x40, 0x00, 0x00, 0x00, 0x00,
   0x00, 0x00, 0x00, 0x20, 0x00, 0x00, 0x00, 0x00, 0x00, 0x00, 0x00, 0xE0,
   0x00, 0x00, 0x00, 0x00, 0x00, 0x00, 0x00, 0xA0, 0x00, 0x00, 0x00, 0x00,
   0x00, 0x00, 0x00, 0xE0, 0x00, 0x00, 0x00, 0x00, 0x00, 0x00, 0x00, 0x40,
   0x00, 0x00, 0x00, 0x00, 0x00, 0x00, 0x00, 0x00, 0x00, 0x00, 0x00, 0x00,
   0x00, 0x00, 0x00, 0x20, 0x00, 0x00, 0x00, 0x00, 0x00, 0x00, 0x00, 0x80,
   0x00, 0x00, 0x00, 0x00, 0x00, 0x00, 0x00, 0x20 };
