#define WoodBlocks_xbm_width 61
#define WoodBlocks_xbm_height 68
static char WoodBlocks_xbm_bits[] = {
   0x00, 0x00, 0x00, 0x00, 0x00, 0x00, 0x00, 0x00, 0x00, 0x00, 0x00, 0x00,
   0x00, 0x00, 0x00, 0x00, 0x00, 0x00, 0x00, 0x80, 0x02, 0x00, 0x00, 0x00,
   0x00, 0x00, 0x00, 0x60, 0x0C, 0x00, 0x00, 0x00, 0x00, 0x00, 0x00, 0x00,
   0x00, 0x00, 0x00, 0x00, 0x00, 0x00, 0x00, 0x28, 0x18, 0x00, 0x00, 0x00,
   0x00, 0x00, 0x00, 0x10, 0x08, 0x00, 0x00, 0x00, 0x00, 0x00, 0x02, 0x10,
   0x28, 0x00, 0x05, 0x00, 0x00, 0x40, 0x05, 0x28, 0x10, 0xC0, 0x0A, 0x00,
   0x00, 0x80, 0x0A, 0x10, 0x18, 0xE0, 0x18, 0x00, 0x00, 0x50, 0x08, 0x18,
   0x10, 0xA0, 0x14, 0x00, 0x00, 0x60, 0x10, 0x14, 0x08, 0x60, 0x20, 0x00,
   0x00, 0x10, 0x10, 0x08, 0x18, 0x10, 0x08, 0x00, 0x00, 0x60, 0x28, 0x14,
   0x28, 0x60, 0x24, 0x00, 0x00, 0x10, 0x10, 0x98, 0x0C, 0x10, 0x18, 0x00,
   0x00, 0x40, 0x20, 0x68, 0x1A, 0x10, 0x10, 0x00, 0x00, 0x30, 0x50, 0xB8,
   0x2C, 0x18, 0x28, 0x00, 0x00, 0x50, 0x20, 0x14, 0x10, 0x10, 0x14, 0x00,
   0x00, 0x20, 0x50, 0x08, 0x08, 0x14, 0x08, 0x00, 0x00, 0x50, 0x20, 0x18,
   0x28, 0xA8, 0x14, 0x00, 0x00, 0x40, 0x52, 0x08, 0x10, 0x5C, 0x0D, 0x00,
   0x00, 0xA0, 0x29, 0x14, 0x18, 0x28, 0x0D, 0x00, 0x00, 0xC0, 0x61, 0x18,
   0x10, 0x0C, 0x14, 0x00, 0x00, 0xA0, 0x20, 0x08, 0x28, 0x02, 0x08, 0x00,
   0x00, 0x40, 0x60, 0x58, 0x12, 0x04, 0x0C, 0x00, 0x00, 0x80, 0x40, 0xB4,
   0x3D, 0x06, 0x0C, 0x00, 0x00, 0x20, 0xA1, 0x78, 0x1B, 0x02, 0x14, 0x00,
   0x00, 0xC0, 0x40, 0x14, 0x28, 0x56, 0x0A, 0x00, 0x00, 0x40, 0xA0, 0x0C,
   0x10, 0xBF, 0x05, 0x00, 0x00, 0x80, 0xC0, 0x14, 0x38, 0xCB, 0x0E, 0x00,
   0x00, 0xA0, 0xBA, 0x04, 0x88, 0x04, 0x07, 0x00, 0x00, 0xC0, 0x55, 0x09,
   0x28, 0x23, 0x0A, 0x00, 0x00, 0x80, 0xCF, 0x0C, 0xD8, 0x00, 0x06, 0x00,
   0x00, 0xC0, 0x2F, 0x05, 0xAC, 0x00, 0x06, 0x00, 0x00, 0xD0, 0xF0, 0x4D,
   0xCA, 0x80, 0x03, 0x00, 0x00, 0x60, 0xF0, 0xAE, 0xED, 0x00, 0x0A, 0x00,
   0x00, 0xB0, 0xE8, 0xFD, 0xBF, 0x00, 0x03, 0x00, 0x00, 0x58, 0x30, 0xBF,
   0xFA, 0x0F, 0x03, 0x00, 0x00, 0x30, 0x0E, 0x5E, 0x00, 0xFA, 0x01, 0x00,
   0x00, 0x70, 0x0B, 0x6C, 0x04, 0x74, 0x03, 0x00, 0x00, 0xB8, 0x06, 0x5D,
   0x08, 0xE8, 0x01, 0x00, 0x00, 0x64, 0x80, 0xA6, 0x05, 0x80, 0x03, 0x00,
   0x00, 0x78, 0x80, 0xCB, 0x02, 0xC0, 0x00, 0x00, 0x00, 0x94, 0x81, 0x02,
   0x07, 0x80, 0x01, 0x00, 0x00, 0xC2, 0x42, 0x81, 0x03, 0x40, 0x01, 0x00,
   0x00, 0x04, 0x83, 0x00, 0x05, 0x80, 0x01, 0x00, 0x00, 0x83, 0x05, 0x00,
   0x06, 0xC2, 0x00, 0x00, 0x00, 0x8D, 0x3E, 0x00, 0xAC, 0x41, 0x01, 0x00,
   0x80, 0x2A, 0x71, 0x00, 0x78, 0xA1, 0x00, 0x00, 0x00, 0x5D, 0xA8, 0x01,
   0xF8, 0xD2, 0x00, 0x00, 0xC0, 0x39, 0xE0, 0x02, 0xB0, 0x68, 0x00, 0x00,
   0x00, 0x69, 0xD0, 0x03, 0x60, 0xB0, 0x00, 0x00, 0xC0, 0xD0, 0xF8, 0x01,
   0xD0, 0x61, 0x00, 0x00, 0x40, 0x65, 0xAD, 0x03, 0xC0, 0x73, 0x00, 0x00,
   0xC0, 0xC2, 0xD6, 0x05, 0xC0, 0x35, 0x00, 0x00, 0x80, 0x01, 0xEF, 0x07,
   0xA0, 0x33, 0x00, 0x00, 0x40, 0x01, 0xAC, 0x0B, 0x50, 0x2D, 0x00, 0x00,
   0xC0, 0x00, 0xF8, 0x0D, 0xA0, 0x12, 0x00, 0x00, 0x40, 0x00, 0x78, 0x2A,
   0x08, 0x1D, 0x00, 0x00, 0xC0, 0x00, 0xB0, 0x54, 0x80, 0x12, 0x00, 0x00,
   0x40, 0x01, 0x78, 0xB0, 0x00, 0x0D, 0x00, 0x00, 0xC0, 0x00, 0x30, 0x80,
   0x00, 0x1D, 0x00, 0x00, 0xC0, 0x00, 0x1A, 0x00, 0x00, 0x07, 0x00, 0x00,
   0x40, 0x01, 0x0C, 0x00, 0x00, 0x0F, 0x00, 0x00, 0x80, 0x00, 0x0E, 0x00,
   0x80, 0x0B, 0x00, 0x00, 0xC0, 0x01, 0x1D, 0x00, 0x40, 0x06, 0x00, 0x00,
   0x80, 0x01, 0x0E, 0x00, 0x80, 0x03, 0x00, 0x00, 0x80, 0x01, 0x1D, 0x00,
   0x00, 0x03, 0x00, 0x00 };
